<?xml version="1.0" encoding="utf-8"?>
<!-- Generator: Adobe Illustrator 16.0.0, SVG Export Plug-In . SVG Version: 6.00 Build 0)  -->
<!DOCTYPE svg PUBLIC "-//W3C//DTD SVG 1.1//EN" "http://www.w3.org/Graphics/SVG/1.1/DTD/svg11.dtd">
<svg version="1.1" id="Слой_1" xmlns="http://www.w3.org/2000/svg" xmlns:xlink="http://www.w3.org/1999/xlink" x="0px" y="0px"
	 width="300px" height="68px" viewBox="0 0 300 68" enable-background="new 0 0 300 68" xml:space="preserve">
<rect y="0.081" fill="#FFE816" width="58.124" height="58.053"/>
<rect y="0.081" fill="#0068C8" width="30.333" height="28.427"/>
<rect x="58.124" y="58.134" fill="#FFE816" width="10.17" height="9.452"/>
<rect y="58.134" fill="#0068C8" width="20.456" height="9.452"/>
<path fill="#0068C8" d="M24.292,29.284l11.197-4.412c0.269-0.106,0.547-0.075,0.787,0.087c0.238,0.163,0.37,0.41,0.37,0.7v18.25
	c0,0.465,0.38,0.848,0.847,0.848H54.08c0.467,0,0.847,0.379,0.847,0.845v8.725c0,0.466-0.38,0.846-0.847,0.846H24.602
	c-0.466,0-0.847-0.38-0.847-0.846V30.072C23.755,29.717,23.961,29.414,24.292,29.284z"/>
<path fill="#0068C8" d="M58.441,0h9.367v3.247c0,1.229-0.046,2.03-0.14,2.403c-0.141,0.574-0.447,1.055-0.918,1.442
	c-0.471,0.387-1.079,0.582-1.824,0.582c-0.577,0-1.059-0.112-1.451-0.334c-0.392-0.224-0.699-0.506-0.924-0.849
	c-0.221-0.343-0.371-0.693-0.442-1.048c-0.089-0.483-0.135-1.181-0.135-2.096V2.03h-3.533V0L58.441,0z M66.225,2.03h-2.669v1.104
	c0,0.796,0.05,1.326,0.149,1.594c0.098,0.269,0.25,0.479,0.462,0.63c0.209,0.152,0.452,0.23,0.73,0.23
	c0.343,0,0.624-0.108,0.847-0.321c0.222-0.215,0.361-0.483,0.418-0.812c0.041-0.241,0.063-0.724,0.063-1.452V2.03L66.225,2.03z
	 M58.441,17.826v-2.187l2.133-0.866v-4.021l-2.133-0.833V7.772l9.367,3.893v2.145L58.441,17.826L58.441,17.826z M62.157,14.115
	l3.467-1.393l-3.467-1.354V14.115L62.157,14.115z M58.441,19.399h9.367v4.264c0,1.071-0.085,1.851-0.252,2.336
	c-0.168,0.488-0.468,0.876-0.896,1.168c-0.432,0.291-0.923,0.438-1.477,0.438c-0.705,0-1.284-0.219-1.743-0.661
	c-0.457-0.44-0.745-1.1-0.865-1.977c-0.238,0.437-0.5,0.796-0.784,1.078c-0.286,0.286-0.795,0.669-1.522,1.149l-1.827,1.223v-2.42
	l2.046-1.452c0.726-0.521,1.184-0.878,1.373-1.072c0.188-0.191,0.318-0.394,0.388-0.609c0.07-0.217,0.105-0.557,0.105-1.024v-0.41
	h-3.911v-2.031H58.441z M63.844,21.43v1.498c0,0.972,0.039,1.576,0.115,1.819c0.077,0.241,0.21,0.432,0.397,0.567
	c0.188,0.138,0.423,0.206,0.704,0.206c0.317,0,0.569-0.091,0.765-0.271c0.194-0.181,0.316-0.434,0.366-0.761
	c0.022-0.166,0.033-0.658,0.033-1.478v-1.58H63.844L63.844,21.43z M58.441,30.032h9.367v2.031h-4.149l4.149,4.089v2.724
	l-3.647-3.783l-5.72,3.979v-2.619l4.398-2.759l-1.567-1.631H58.44L58.441,30.032L58.441,30.032z M58.441,40.609h9.367v7.42h-1.583
	v-5.389h-2.081v5.012h-1.583v-5.012h-2.537v5.586H58.44L58.441,40.609L58.441,40.609z M58.441,52.695h7.784v-2.969h1.583v7.955
	h-1.583v-2.955h-7.784V52.695L58.441,52.695z"/>
<path fill="#0068C8" d="M21.643,67.637v-9.289h2.623v7.707h6.49v1.582H21.643L21.643,67.637z M33.251,58.27h2.622v5.076
	c0,0.807,0.034,1.327,0.097,1.565c0.111,0.384,0.373,0.692,0.79,0.923c0.418,0.234,0.988,0.35,1.711,0.35
	c0.732,0,1.287-0.107,1.66-0.328c0.374-0.22,0.597-0.488,0.672-0.81c0.075-0.321,0.115-0.851,0.115-1.592V58.27h2.621v4.926
	c0,1.125-0.069,1.921-0.211,2.386c-0.142,0.464-0.4,0.856-0.78,1.178c-0.377,0.321-0.883,0.574-1.517,0.765
	c-0.635,0.188-1.46,0.283-2.482,0.283c-1.232,0-2.167-0.102-2.803-0.309c-0.636-0.208-1.139-0.477-1.509-0.809
	c-0.372-0.332-0.612-0.676-0.729-1.039c-0.172-0.536-0.257-1.33-0.257-2.379V58.27L33.251,58.27z M45.635,67.637l4.468-4.884
	L46.05,58.27h3.053l2.549,2.789l2.55-2.789h3.059l-4.063,4.485l4.46,4.882h-3.14l-2.868-3.174l-2.872,3.174H45.635z"/>
<path fill="#FFFFFF" d="M6.771,8.404h19.383c4.407,0,7.708,1.042,9.905,3.143c2.191,2.095,3.395,5.084,3.395,8.96
	c0,3.977-1.31,7.407-3.697,9.646c-2.394,2.241-6.048,3.362-10.958,3.362h-4.766c-0.466,0-0.846,0.38-0.846,0.847v12.557
	c0,0.467-0.38,0.847-0.847,0.847H6.771c-0.466,0-0.847-0.38-0.847-0.847V9.25C5.924,8.784,6.305,8.404,6.771,8.404L6.771,8.404z
	 M20.033,24.591h1.304c4.305,0,5.445-1.467,5.445-3.896c0-1.661-1.489-3.207-5.172-3.207h-1.577c-0.466,0-0.846,0.381-0.846,0.846
	v5.411C19.187,24.211,19.567,24.591,20.033,24.591z"/>
<g enable-background="new    ">
	<path fill="#0068C8" d="M81.282,34.061V14.854h6.223c2.358,0,3.896,0.096,4.611,0.288c1.101,0.289,2.022,0.915,2.765,1.88
		c0.742,0.965,1.114,2.212,1.114,3.74c0,1.179-0.214,2.171-0.642,2.974c-0.428,0.804-0.972,1.435-1.631,1.894
		c-0.659,0.459-1.33,0.762-2.011,0.91c-0.926,0.184-2.267,0.275-4.022,0.275H85.16v7.245H81.282z M85.16,18.104v5.45h2.123
		c1.528,0,2.55-0.101,3.065-0.302s0.919-0.516,1.212-0.943s0.439-0.926,0.439-1.493c0-0.699-0.206-1.275-0.616-1.729
		c-0.411-0.454-0.93-0.738-1.559-0.852c-0.463-0.087-1.393-0.131-2.791-0.131H85.16z"/>
	<path fill="#0068C8" d="M114.506,34.061h-4.217l-1.678-4.362h-7.678l-1.584,4.362h-4.115l7.48-19.207h4.102L114.506,34.061z
		 M107.367,26.462l-2.646-7.127l-2.594,7.127H107.367z"/>
	<path fill="#0068C8" d="M116.576,34.061V14.854h8.162c2.053,0,3.544,0.173,4.475,0.518c0.93,0.345,1.675,0.958,2.233,1.84
		c0.559,0.883,0.839,1.892,0.839,3.026c0,1.441-0.424,2.632-1.271,3.57c-0.847,0.939-2.113,1.531-3.799,1.775
		c0.839,0.489,1.53,1.026,2.076,1.611s1.282,1.625,2.208,3.118l2.345,3.747h-4.638l-2.804-4.18
		c-0.995-1.493-1.677-2.435-2.044-2.823c-0.366-0.389-0.755-0.654-1.166-0.799c-0.41-0.145-1.061-0.216-1.952-0.216h-0.786v8.018
		H116.576z M120.454,22.977h2.869c1.86,0,3.022-0.078,3.485-0.235s0.825-0.428,1.088-0.812c0.262-0.384,0.393-0.864,0.393-1.441
		c0-0.646-0.173-1.168-0.518-1.565s-0.832-0.648-1.461-0.753c-0.314-0.044-1.258-0.065-2.83-0.065h-3.026V22.977z"/>
	<path fill="#0068C8" d="M135.993,34.061V14.854h3.878v8.529l7.834-8.529h5.215l-7.232,7.481l7.625,11.726h-5.018l-5.28-9.014
		l-3.144,3.21v5.804H135.993z"/>
	<path fill="#0068C8" d="M155.317,34.061V14.854h14.241v3.25h-10.363v4.258h9.643v3.235h-9.643v5.228h10.729v3.236H155.317z"/>
	<path fill="#0068C8" d="M177.537,34.061V18.104h-5.699v-3.25h15.264v3.25h-5.687v15.957H177.537z"/>
	<path fill="#0068C8" d="M187.678,28.938v-3.681h7.231v3.681H187.678z"/>
	<path fill="#0068C8" d="M197.163,34.061V15.011h3.878v15.813h9.643v3.236H197.163z"/>
	<path fill="#0068C8" d="M213.422,14.854h3.878v10.403c0,1.65,0.048,2.721,0.145,3.209c0.166,0.786,0.561,1.418,1.186,1.894
		c0.624,0.477,1.479,0.714,2.562,0.714c1.101,0,1.93-0.225,2.489-0.675c0.559-0.449,0.895-1.002,1.009-1.657
		c0.113-0.655,0.17-1.742,0.17-3.262V14.854h3.878v10.088c0,2.306-0.104,3.935-0.314,4.887s-0.596,1.755-1.159,2.41
		s-1.316,1.178-2.26,1.565c-0.943,0.389-2.175,0.583-3.695,0.583c-1.834,0-3.225-0.212-4.173-0.635
		c-0.947-0.424-1.696-0.974-2.246-1.651c-0.551-0.677-0.913-1.386-1.088-2.129c-0.253-1.101-0.38-2.725-0.38-4.873V14.854z"/>
	<path fill="#0068C8" d="M230.872,34.061l6.563-10.022l-5.947-9.184h4.532l3.853,6.17l3.772-6.17h4.494l-5.975,9.329l6.564,9.878
		h-4.678l-4.258-6.643l-4.271,6.643H230.872z"/>
	<path fill="#0068C8" d="M250.694,34.061v-3.682h3.682v3.682H250.694z"/>
	<path fill="#0068C8" d="M258.188,34.061V14.854h8.162c2.053,0,3.544,0.173,4.475,0.518c0.93,0.345,1.675,0.958,2.233,1.84
		c0.559,0.883,0.839,1.892,0.839,3.026c0,1.441-0.424,2.632-1.271,3.57c-0.847,0.939-2.113,1.531-3.799,1.775
		c0.839,0.489,1.53,1.026,2.076,1.611s1.282,1.625,2.208,3.118l2.345,3.747h-4.638l-2.804-4.18
		c-0.995-1.493-1.677-2.435-2.044-2.823c-0.366-0.389-0.755-0.654-1.166-0.799c-0.41-0.145-1.061-0.216-1.952-0.216h-0.786v8.018
		H258.188z M262.066,22.977h2.869c1.86,0,3.022-0.078,3.485-0.235s0.825-0.428,1.088-0.812c0.262-0.384,0.393-0.864,0.393-1.441
		c0-0.646-0.173-1.168-0.518-1.565s-0.832-0.648-1.461-0.753c-0.314-0.044-1.258-0.065-2.83-0.065h-3.026V22.977z"/>
	<path fill="#0068C8" d="M277.526,14.854h3.878v10.403c0,1.65,0.048,2.721,0.145,3.209c0.166,0.786,0.561,1.418,1.186,1.894
		c0.624,0.477,1.479,0.714,2.562,0.714c1.101,0,1.93-0.225,2.489-0.675c0.559-0.449,0.895-1.002,1.009-1.657
		c0.113-0.655,0.17-1.742,0.17-3.262V14.854h3.878v10.088c0,2.306-0.104,3.935-0.314,4.887s-0.596,1.755-1.159,2.41
		s-1.316,1.178-2.26,1.565c-0.943,0.389-2.175,0.583-3.695,0.583c-1.834,0-3.225-0.212-4.173-0.635
		c-0.947-0.424-1.696-0.974-2.246-1.651c-0.551-0.677-0.913-1.386-1.088-2.129c-0.253-1.101-0.38-2.725-0.38-4.873V14.854z"/>
</g>
<g enable-background="new    ">
	<path fill="#1D1D1B" d="M81.188,46.03h1.019v3.454h1.48c0.074-1.092,0.432-1.963,1.076-2.611c0.644-0.649,1.442-0.975,2.394-0.975
		c1.005,0,1.837,0.354,2.497,1.061s0.99,1.666,0.99,2.877c0,1.261-0.329,2.246-0.987,2.956c-0.658,0.711-1.5,1.065-2.525,1.065
		c-0.931,0-1.708-0.307-2.329-0.921s-0.986-1.464-1.095-2.549h-1.501v3.339h-1.019V46.03z M84.711,49.915
		c0,0.973,0.224,1.729,0.672,2.266c0.448,0.537,1.036,0.806,1.764,0.806c0.746,0,1.34-0.27,1.785-0.809
		c0.444-0.539,0.667-1.314,0.667-2.325c0-0.959-0.219-1.715-0.656-2.266c-0.438-0.552-1.029-0.827-1.774-0.827
		c-0.76,0-1.359,0.279-1.798,0.838C84.931,48.155,84.711,48.928,84.711,49.915z"/>
	<path fill="#1D1D1B" d="M91.977,53.727V46.03h2.887c0.588,0,1.06,0.078,1.415,0.233c0.355,0.156,0.633,0.396,0.835,0.72
		c0.201,0.323,0.302,0.662,0.302,1.016c0,0.329-0.089,0.639-0.268,0.929c-0.179,0.291-0.448,0.525-0.809,0.704
		c0.465,0.136,0.823,0.369,1.073,0.698s0.375,0.717,0.375,1.165c0,0.36-0.076,0.696-0.228,1.006
		c-0.152,0.31-0.341,0.548-0.564,0.717c-0.224,0.168-0.505,0.295-0.843,0.38c-0.338,0.086-0.751,0.129-1.242,0.129H91.977z
		 M92.996,49.264h1.664c0.452,0,0.775-0.029,0.971-0.089c0.259-0.077,0.454-0.205,0.585-0.383c0.131-0.179,0.197-0.403,0.197-0.673
		c0-0.255-0.061-0.479-0.184-0.674s-0.297-0.327-0.525-0.399c-0.228-0.071-0.618-0.107-1.171-0.107h-1.538V49.264z M92.996,52.818
		h1.916c0.329,0,0.56-0.013,0.693-0.037c0.235-0.042,0.431-0.111,0.588-0.21c0.157-0.098,0.287-0.24,0.388-0.428
		s0.152-0.403,0.152-0.648c0-0.287-0.073-0.536-0.22-0.748c-0.147-0.212-0.351-0.36-0.612-0.446s-0.636-0.129-1.126-0.129h-1.78
		V52.818z"/>
	<path fill="#1D1D1B" d="M99.212,53.727V46.03h5.564v0.908h-4.546v2.357h4.258v0.902h-4.258v2.62h4.725v0.908H99.212z"/>
	<path fill="#1D1D1B" d="M106.924,46.03h4.819v7.696h-1.019v-6.788h-2.782v3.964c0,0.805-0.038,1.395-0.113,1.769
		c-0.075,0.375-0.233,0.666-0.476,0.875c-0.241,0.208-0.547,0.312-0.918,0.312c-0.225,0-0.494-0.042-0.809-0.126l0.173-0.902
		c0.168,0.069,0.312,0.104,0.431,0.104c0.231,0,0.404-0.086,0.52-0.26c0.116-0.173,0.174-0.582,0.174-1.226V46.03z"/>
	<path fill="#1D1D1B" d="M113.434,46.03h0.924v6.095l4.095-6.095h1.023v7.696h-0.924v-6.079l-4.101,6.079h-1.018V46.03z"/>
	<path fill="#1D1D1B" d="M121.146,53.727V46.03h2.903c0.512,0,0.901,0.024,1.171,0.073c0.378,0.063,0.695,0.183,0.95,0.359
		c0.256,0.177,0.461,0.425,0.617,0.743c0.155,0.318,0.233,0.669,0.233,1.05c0,0.654-0.208,1.209-0.625,1.662
		c-0.416,0.453-1.169,0.68-2.257,0.68h-1.975v3.129H121.146z M122.164,49.689h1.99c0.658,0,1.125-0.123,1.401-0.367
		c0.276-0.245,0.415-0.59,0.415-1.035c0-0.321-0.081-0.597-0.244-0.826s-0.377-0.381-0.644-0.454
		c-0.171-0.046-0.488-0.068-0.95-0.068h-1.969V49.689z"/>
	<path fill="#1D1D1B" d="M128.35,53.727V46.03h1.019v3.16h4v-3.16h1.019v7.696h-1.019v-3.628h-4v3.628H128.35z"/>
	<path fill="#1D1D1B" d="M135.237,53.727l2.956-7.696h1.097l3.15,7.696h-1.16l-0.898-2.331h-3.218l-0.846,2.331H135.237z
		 M137.458,50.566h2.609l-0.804-2.132c-0.245-0.647-0.427-1.18-0.546-1.596c-0.098,0.493-0.236,0.983-0.415,1.47L137.458,50.566z"/>
	<path fill="#1D1D1B" d="M148.325,53.727v-3.418h-1.182c-0.263,0-0.451,0.013-0.567,0.037c-0.157,0.038-0.312,0.106-0.464,0.205
		c-0.152,0.098-0.325,0.27-0.518,0.514c-0.192,0.245-0.438,0.599-0.735,1.061l-1.018,1.602h-1.281l1.339-2.095
		c0.266-0.409,0.548-0.751,0.845-1.023c0.14-0.126,0.345-0.254,0.614-0.384c-0.738-0.102-1.284-0.339-1.638-0.714
		c-0.354-0.374-0.53-0.835-0.53-1.381c0-0.423,0.106-0.81,0.32-1.16c0.213-0.35,0.499-0.594,0.855-0.732
		c0.357-0.138,0.879-0.207,1.564-0.207h3.413v7.696H148.325z M148.325,46.881h-2.437c-0.57,0-0.987,0.117-1.252,0.352
		s-0.396,0.533-0.396,0.897c0,0.249,0.068,0.479,0.205,0.69s0.336,0.366,0.599,0.462c0.262,0.097,0.626,0.145,1.092,0.145h2.189
		V46.881z"/>
	<path fill="#1D1D1B" d="M153.229,46.03h1.028l2.51,4.714l2.194-4.714h1.014l-2.888,5.984c-0.36,0.749-0.656,1.239-0.887,1.471
		c-0.231,0.23-0.562,0.347-0.992,0.347c-0.263,0-0.585-0.062-0.967-0.185v-0.871c0.273,0.157,0.562,0.236,0.866,0.236
		c0.249,0,0.463-0.08,0.644-0.239c0.18-0.159,0.379-0.522,0.596-1.089L153.229,46.03z"/>
	<path fill="#1D1D1B" d="M160.852,46.03h1.018v3.37c0.466,0,0.793-0.09,0.982-0.271c0.188-0.18,0.431-0.613,0.725-1.299
		c0.213-0.504,0.389-0.86,0.527-1.068s0.335-0.384,0.591-0.525c0.255-0.142,0.537-0.213,0.845-0.213c0.393,0,0.599,0.004,0.62,0.011
		v0.882c-0.035,0-0.104-0.001-0.205-0.005c-0.112-0.004-0.181-0.005-0.205-0.005c-0.325,0-0.566,0.078-0.725,0.235
		c-0.16,0.158-0.345,0.494-0.551,1.009c-0.259,0.65-0.478,1.062-0.656,1.23c-0.179,0.17-0.392,0.306-0.641,0.407
		c0.497,0.137,0.987,0.595,1.47,1.376l1.586,2.562h-1.266l-1.286-2.09c-0.354-0.577-0.649-0.974-0.887-1.188
		c-0.238-0.216-0.546-0.323-0.925-0.323v3.602h-1.018V46.03z"/>
	<path fill="#1D1D1B" d="M167.661,46.03h4.819v7.696h-1.019v-6.788h-2.782v3.964c0,0.805-0.038,1.395-0.113,1.769
		c-0.075,0.375-0.233,0.666-0.476,0.875c-0.241,0.208-0.547,0.312-0.918,0.312c-0.225,0-0.494-0.042-0.809-0.126l0.173-0.902
		c0.168,0.069,0.312,0.104,0.431,0.104c0.231,0,0.404-0.086,0.52-0.26c0.116-0.173,0.174-0.582,0.174-1.226V46.03z"/>
	<path fill="#1D1D1B" d="M173.31,53.727l2.956-7.696h1.097l3.15,7.696h-1.16l-0.898-2.331h-3.218l-0.846,2.331H173.31z
		 M175.53,50.566h2.609l-0.804-2.132c-0.245-0.647-0.427-1.18-0.546-1.596c-0.098,0.493-0.236,0.983-0.415,1.47L175.53,50.566z"/>
	<path fill="#1D1D1B" d="M182.382,46.03h4.684v6.788h0.692v2.704h-0.908v-1.796h-5.087v1.796h-0.908v-2.704h0.599
		c0.619-0.935,0.929-2.822,0.929-5.665V46.03z M186.047,46.938h-2.683v0.394c0,0.654-0.059,1.55-0.176,2.686
		s-0.348,2.069-0.69,2.801h3.549V46.938z"/>
	<path fill="#1D1D1B" d="M188.981,46.03h1.018v3.37c0.466,0,0.793-0.09,0.982-0.271c0.188-0.18,0.431-0.613,0.725-1.299
		c0.213-0.504,0.389-0.86,0.527-1.068s0.335-0.384,0.591-0.525c0.255-0.142,0.537-0.213,0.845-0.213c0.393,0,0.599,0.004,0.62,0.011
		v0.882c-0.035,0-0.104-0.001-0.205-0.005c-0.112-0.004-0.181-0.005-0.205-0.005c-0.325,0-0.566,0.078-0.725,0.235
		c-0.16,0.158-0.345,0.494-0.551,1.009c-0.259,0.65-0.478,1.062-0.656,1.23c-0.179,0.17-0.392,0.306-0.641,0.407
		c0.497,0.137,0.987,0.595,1.47,1.376l1.586,2.562h-1.266l-1.286-2.09c-0.354-0.577-0.649-0.974-0.887-1.188
		c-0.238-0.216-0.546-0.323-0.925-0.323v3.602h-1.018V46.03z"/>
	<path fill="#1D1D1B" d="M194.384,53.727l2.956-7.696h1.097l3.15,7.696h-1.16l-0.898-2.331h-3.218l-0.846,2.331H194.384z
		 M196.604,50.566h2.609l-0.804-2.132c-0.245-0.647-0.427-1.18-0.546-1.596c-0.098,0.493-0.236,0.983-0.415,1.47L196.604,50.566z"/>
	<path fill="#1D1D1B" d="M205.397,46.03h6.054v7.696h-1.024v-6.788h-4.011v6.788h-1.019V46.03z"/>
	<path fill="#1D1D1B" d="M212.271,53.727l2.956-7.696h1.097l3.15,7.696h-1.16l-0.898-2.331h-3.218l-0.846,2.331H212.271z
		 M214.491,50.566h2.609l-0.804-2.132c-0.245-0.647-0.427-1.18-0.546-1.596c-0.098,0.493-0.236,0.983-0.415,1.47L214.491,50.566z"/>
	<path fill="#1D1D1B" d="M220.286,53.727V46.03h2.903c0.512,0,0.901,0.024,1.171,0.073c0.378,0.063,0.695,0.183,0.95,0.359
		c0.256,0.177,0.461,0.425,0.617,0.743c0.155,0.318,0.233,0.669,0.233,1.05c0,0.654-0.208,1.209-0.625,1.662
		c-0.416,0.453-1.169,0.68-2.257,0.68h-1.975v3.129H220.286z M221.305,49.689h1.99c0.658,0,1.125-0.123,1.401-0.367
		c0.276-0.245,0.415-0.59,0.415-1.035c0-0.321-0.081-0.597-0.244-0.826s-0.377-0.381-0.644-0.454
		c-0.171-0.046-0.488-0.068-0.95-0.068h-1.969V49.689z"/>
	<path fill="#1D1D1B" d="M227.475,46.03h1.018v3.37c0.466,0,0.793-0.09,0.982-0.271c0.188-0.18,0.431-0.613,0.725-1.299
		c0.213-0.504,0.389-0.86,0.527-1.068s0.335-0.384,0.591-0.525c0.255-0.142,0.537-0.213,0.845-0.213c0.393,0,0.599,0.004,0.62,0.011
		v0.882c-0.035,0-0.104-0.001-0.205-0.005c-0.112-0.004-0.181-0.005-0.205-0.005c-0.325,0-0.566,0.078-0.725,0.235
		c-0.16,0.158-0.345,0.494-0.551,1.009c-0.259,0.65-0.478,1.062-0.656,1.23c-0.179,0.17-0.392,0.306-0.641,0.407
		c0.497,0.137,0.987,0.595,1.47,1.376l1.586,2.562h-1.266l-1.286-2.09c-0.354-0.577-0.649-0.974-0.887-1.188
		c-0.238-0.216-0.546-0.323-0.925-0.323v3.602h-1.018V46.03z"/>
	<path fill="#1D1D1B" d="M233.742,53.727V46.03h5.564v0.908h-4.546v2.357h4.258v0.902h-4.258v2.62h4.725v0.908H233.742z"/>
	<path fill="#1D1D1B" d="M242.852,53.727v-6.788h-2.536V46.03h6.101v0.908h-2.546v6.788H242.852z"/>
	<path fill="#1D1D1B" d="M246.259,53.727l2.956-7.696h1.097l3.15,7.696h-1.16l-0.898-2.331h-3.218l-0.846,2.331H246.259z
		 M248.479,50.566h2.609l-0.804-2.132c-0.245-0.647-0.427-1.18-0.546-1.596c-0.098,0.493-0.236,0.983-0.415,1.47L248.479,50.566z"/>
	<path fill="#1D1D1B" d="M260.779,51.685l0.93,0.12c-0.102,0.641-0.361,1.143-0.779,1.505c-0.419,0.362-0.933,0.543-1.541,0.543
		c-0.764,0-1.377-0.249-1.841-0.748s-0.695-1.214-0.695-2.145c0-0.603,0.1-1.129,0.3-1.58c0.199-0.452,0.503-0.79,0.91-1.017
		c0.408-0.226,0.852-0.338,1.331-0.338c0.605,0,1.101,0.152,1.485,0.459c0.386,0.307,0.632,0.741,0.74,1.305l-0.918,0.142
		c-0.088-0.374-0.243-0.656-0.465-0.845c-0.223-0.189-0.491-0.284-0.806-0.284c-0.477,0-0.863,0.171-1.16,0.512
		c-0.298,0.342-0.446,0.882-0.446,1.62c0,0.749,0.144,1.293,0.43,1.633c0.287,0.34,0.662,0.509,1.124,0.509
		c0.371,0,0.681-0.113,0.929-0.341C260.556,52.507,260.713,52.157,260.779,51.685z"/>
	<path fill="#1D1D1B" d="M268.802,53.727h-0.945v-6.021c-0.228,0.217-0.525,0.434-0.895,0.65c-0.37,0.218-0.701,0.38-0.995,0.488
		v-0.913c0.528-0.249,0.99-0.55,1.386-0.903s0.676-0.696,0.84-1.028h0.609V53.727z"/>
	<path fill="#1D1D1B" d="M271.364,51.947l0.908-0.084c0.077,0.427,0.224,0.736,0.441,0.929c0.217,0.192,0.495,0.289,0.835,0.289
		c0.29,0,0.545-0.066,0.764-0.2c0.219-0.133,0.397-0.311,0.538-0.532c0.14-0.223,0.257-0.522,0.352-0.9s0.142-0.763,0.142-1.155
		c0-0.042-0.002-0.104-0.005-0.188c-0.189,0.301-0.447,0.545-0.774,0.732c-0.327,0.187-0.682,0.28-1.063,0.28
		c-0.637,0-1.176-0.23-1.617-0.693c-0.44-0.462-0.661-1.07-0.661-1.826c0-0.781,0.23-1.409,0.69-1.885
		c0.46-0.477,1.037-0.714,1.729-0.714c0.501,0,0.958,0.135,1.373,0.403c0.415,0.271,0.729,0.654,0.945,1.153
		c0.215,0.498,0.322,1.22,0.322,2.165c0,0.983-0.106,1.767-0.32,2.35c-0.213,0.583-0.53,1.026-0.952,1.331
		c-0.422,0.304-0.916,0.456-1.483,0.456c-0.602,0-1.094-0.167-1.476-0.501C271.671,53.022,271.441,52.553,271.364,51.947z
		 M275.233,48.55c0-0.542-0.145-0.973-0.433-1.291c-0.289-0.318-0.637-0.478-1.042-0.478c-0.421,0-0.786,0.171-1.098,0.514
		c-0.312,0.344-0.467,0.788-0.467,1.334c0,0.49,0.147,0.888,0.443,1.194s0.66,0.459,1.095,0.459c0.438,0,0.797-0.152,1.078-0.459
		C275.093,49.517,275.233,49.093,275.233,48.55z"/>
	<path fill="#1D1D1B" d="M277.344,51.947l0.908-0.084c0.077,0.427,0.224,0.736,0.441,0.929c0.217,0.192,0.495,0.289,0.835,0.289
		c0.29,0,0.545-0.066,0.764-0.2c0.219-0.133,0.397-0.311,0.538-0.532c0.14-0.223,0.257-0.522,0.352-0.9s0.142-0.763,0.142-1.155
		c0-0.042-0.002-0.104-0.005-0.188c-0.189,0.301-0.447,0.545-0.774,0.732c-0.327,0.187-0.682,0.28-1.063,0.28
		c-0.637,0-1.176-0.23-1.617-0.693c-0.44-0.462-0.661-1.07-0.661-1.826c0-0.781,0.23-1.409,0.69-1.885
		c0.46-0.477,1.037-0.714,1.729-0.714c0.501,0,0.958,0.135,1.373,0.403c0.415,0.271,0.729,0.654,0.945,1.153
		c0.215,0.498,0.322,1.22,0.322,2.165c0,0.983-0.106,1.767-0.32,2.35c-0.213,0.583-0.53,1.026-0.952,1.331
		c-0.422,0.304-0.916,0.456-1.483,0.456c-0.602,0-1.094-0.167-1.476-0.501C277.65,53.022,277.421,52.553,277.344,51.947z
		 M281.213,48.55c0-0.542-0.145-0.973-0.433-1.291c-0.289-0.318-0.637-0.478-1.042-0.478c-0.421,0-0.786,0.171-1.098,0.514
		c-0.312,0.344-0.467,0.788-0.467,1.334c0,0.49,0.147,0.888,0.443,1.194s0.66,0.459,1.095,0.459c0.438,0,0.797-0.152,1.078-0.459
		C281.072,49.517,281.213,49.093,281.213,48.55z"/>
	<path fill="#1D1D1B" d="M284.636,49.553c-0.392-0.144-0.683-0.348-0.871-0.614c-0.189-0.266-0.284-0.584-0.284-0.955
		c0-0.561,0.201-1.031,0.604-1.412c0.402-0.382,0.938-0.572,1.606-0.572c0.672,0,1.213,0.194,1.622,0.585s0.614,0.865,0.614,1.426
		c0,0.356-0.094,0.667-0.281,0.932c-0.188,0.264-0.472,0.468-0.853,0.611c0.472,0.154,0.832,0.402,1.078,0.745
		c0.247,0.344,0.37,0.753,0.37,1.229c0,0.658-0.232,1.212-0.698,1.659c-0.465,0.448-1.078,0.672-1.837,0.672
		c-0.76,0-1.372-0.225-1.838-0.674c-0.465-0.45-0.698-1.011-0.698-1.683c0-0.501,0.127-0.92,0.381-1.258
		S284.167,49.676,284.636,49.553z M284.143,51.506c0,0.27,0.063,0.53,0.191,0.782s0.317,0.447,0.569,0.585
		c0.252,0.139,0.523,0.208,0.814,0.208c0.451,0,0.824-0.146,1.118-0.436c0.294-0.291,0.44-0.66,0.44-1.108
		c0-0.455-0.151-0.831-0.454-1.129c-0.303-0.297-0.682-0.446-1.137-0.446c-0.444,0-0.812,0.147-1.104,0.441
		C284.288,50.697,284.143,51.064,284.143,51.506z M284.447,47.951c0,0.364,0.117,0.662,0.352,0.893
		c0.234,0.231,0.539,0.347,0.913,0.347c0.364,0,0.662-0.114,0.896-0.344c0.232-0.229,0.349-0.51,0.349-0.843
		c0-0.347-0.12-0.638-0.359-0.874s-0.538-0.354-0.896-0.354c-0.36,0-0.659,0.115-0.897,0.347S284.447,47.63,284.447,47.951z"/>
	<path fill="#1D1D1B" d="M289.429,48.151h3.208v0.782h-2.263v4.793h-0.945V48.151z"/>
</g>
</svg>
