<svg data-name="Слой 1" xmlns="http://www.w3.org/2000/svg" viewBox="0 0 26.81 26.81"><path d="M26.22 23.87a5.09 5.09 0 0 1-2.32 2 7.31 7.31 0 0 1-3.55 1 14.59 14.59 0 0 1-5-1.32 17 17 0 0 1-3.32-1.68 32.21 32.21 0 0 1-9.14-9.1 18.15 18.15 0 0 1-1.58-3.33 14.69 14.69 0 0 1-1.31-5 7.27 7.27 0 0 1 .97-3.57 5 5 0 0 1 2-2.32 8.35 8.35 0 0 1 2.65-.59 1 1 0 0 1 .39.05c.4.14.82 1.07 1 1.45.61 1.09 1.2 2.19 1.83 3.26.31.49.88 1.1.88 1.69 0 1.16-3.45 2.86-3.45 3.89a4.13 4.13 0 0 0 .74 1.63 19 19 0 0 0 7.79 7.79 4.09 4.09 0 0 0 1.64.74c1 0 2.72-3.44 3.88-3.44.6 0 1.2.57 1.7.87 1.07.63 2.17 1.22 3.26 1.83.38.19 1.31.61 1.44 1a1 1 0 0 1 .06.4 8.35 8.35 0 0 1-.56 2.75z" fill="#0068c8"/></svg>
