<?xml version="1.0" encoding="utf-8"?>
<!-- Generator: Adobe Illustrator 22.1.0, SVG Export Plug-In . SVG Version: 6.00 Build 0)  -->
<svg version="1.1" id="Слой_1" xmlns="http://www.w3.org/2000/svg" xmlns:xlink="http://www.w3.org/1999/xlink" x="0px" y="0px"
	 viewBox="0 0 150.1 29.8" style="enable-background:new 0 0 150.1 29.8;" xml:space="preserve">
<style type="text/css">
	.st0{fill:#848484;}
	.st1{display:none;fill:#FFFFFF;enable-background:new    ;}
	.st2{font-family:'Arial-BoldMT';}
	.st3{font-size:13.09px;}
	.st4{display:none;enable-background:new    ;}
	.st5{display:inline;fill:#FFFFFF;}
	.st6{fill:#FFFFFF;}
</style>
<title>назад 7</title>
<path class="st0" d="M148.5,13l-9.7-11.4c-1-1.2-2.5-1.8-4-1.8l-22.7,0l0,29.8l22.8,0c1.5,0,3-0.7,4-1.8l9.6-11.5
	C149.3,15.3,149.3,14,148.5,13z"/>
<rect x="44.8" class="st0" width="76.6" height="29.6"/>
<path class="st0" d="M3.8,0C1.9-0.1,0.4,1.4,0.3,3.3l0,0.1l0,22.9c0,1.9,1.6,3.4,3.5,3.4l94,0l0-29.6L3.8,0z"/>
<text transform="matrix(1 0 0 1 12.6234 19.4798)" class="st1 st2 st3">т</text>
<text transform="matrix(1 0 0 1 18.8631 19.4798)" class="st1 st2 st3">о</text>
<text transform="matrix(1 0 0 1 26.8534 19.4798)" class="st1 st2 st3">в</text>
<g class="st4">
	<path class="st5" d="M-40.3,19.5v-9.4h3.5c0.7,0,1.3,0.1,1.7,0.3s0.8,0.5,1,0.9s0.4,0.8,0.4,1.2s-0.1,0.8-0.3,1.1
		c-0.2,0.3-0.5,0.6-1,0.9c0.6,0.2,1,0.4,1.3,0.8c0.3,0.4,0.5,0.9,0.5,1.4c0,0.4-0.1,0.8-0.3,1.2c-0.2,0.4-0.4,0.7-0.7,0.9
		c-0.3,0.2-0.6,0.4-1,0.5c-0.4,0.1-0.9,0.2-1.5,0.2C-36.7,19.5-40.3,19.5-40.3,19.5z M-39,14h2c0.5,0,0.9,0,1.2-0.1s0.6-0.2,0.7-0.5
		c0.2-0.2,0.2-0.5,0.2-0.8s-0.1-0.6-0.2-0.8c-0.1-0.2-0.4-0.4-0.6-0.5c-0.3-0.1-0.8-0.1-1.4-0.1H-39C-39,11.2-39,14-39,14z
		 M-39,18.4h2.3c0.4,0,0.7,0,0.8,0c0.3-0.1,0.5-0.1,0.7-0.3c0.2-0.1,0.3-0.3,0.5-0.5c0.1-0.2,0.2-0.5,0.2-0.8s-0.1-0.7-0.3-0.9
		c-0.2-0.3-0.4-0.4-0.7-0.5c-0.3-0.1-0.8-0.2-1.4-0.2h-2.2L-39,18.4L-39,18.4z"/>
	<path class="st5" d="M-27,17.3l1.2,0.1c-0.2,0.7-0.5,1.2-1,1.6s-1.2,0.6-1.9,0.6c-1,0-1.8-0.3-2.4-0.9s-0.9-1.5-0.9-2.6
		s0.3-2,0.9-2.7s1.4-0.9,2.3-0.9s1.6,0.3,2.2,0.9c0.6,0.6,0.9,1.5,0.9,2.6c0,0.1,0,0.2,0,0.3h-5.1c0,0.7,0.3,1.3,0.6,1.7
		c0.4,0.4,0.9,0.6,1.4,0.6c0.4,0,0.8-0.1,1.1-0.3C-27.4,18.1-27.2,17.8-27,17.3z M-30.8,15.4h3.8c-0.1-0.6-0.2-1-0.4-1.3
		c-0.4-0.4-0.8-0.7-1.4-0.7c-0.5,0-1,0.2-1.3,0.5C-30.5,14.4-30.7,14.8-30.8,15.4z"/>
	<path class="st5" d="M-24.3,22.1v-9.4h1v0.9c0.2-0.3,0.5-0.6,0.8-0.8s0.7-0.3,1.1-0.3c0.6,0,1.1,0.1,1.5,0.4c0.4,0.3,0.8,0.7,1,1.3
		c0.2,0.5,0.3,1.1,0.3,1.8s-0.1,1.3-0.4,1.9c-0.2,0.6-0.6,1-1.1,1.3s-1,0.4-1.5,0.4c-0.4,0-0.7-0.1-1-0.2c-0.3-0.2-0.6-0.4-0.8-0.6
		v3.3C-23.4,22.1-24.3,22.1-24.3,22.1z M-23.3,16.1c0,0.9,0.2,1.5,0.5,1.9c0.4,0.4,0.8,0.6,1.3,0.6s0.9-0.2,1.3-0.6s0.5-1.1,0.5-2
		c0-0.9-0.2-1.5-0.5-1.9s-0.8-0.6-1.3-0.6s-0.9,0.2-1.3,0.7C-23.1,14.6-23.3,15.3-23.3,16.1z"/>
	<path class="st5" d="M-17.1,12.7h1.2v2.8h3.2v-2.8h1.2v6.8h-1.2v-3h-3.2v3h-1.2V12.7z"/>
	<path class="st5" d="M-9.9,22.1L-10,21c0.3,0.1,0.5,0.1,0.7,0.1c0.3,0,0.5,0,0.6-0.1c0.2-0.1,0.3-0.2,0.4-0.4
		c0.1-0.1,0.2-0.4,0.4-0.9c0-0.1,0.1-0.2,0.1-0.3l-2.6-6.8h1.2l1.4,3.9c0.2,0.5,0.3,1,0.5,1.6c0.1-0.5,0.3-1,0.5-1.5l1.5-4h1.2
		l-2.6,6.9C-7,20.2-7.2,20.8-7.3,21c-0.2,0.4-0.4,0.7-0.7,0.8c-0.3,0.2-0.6,0.3-0.9,0.3C-9.4,22.2-9.6,22.2-9.9,22.1z"/>
	<path class="st5" d="M-3.9,12.7h5.5v1h-2.2v5.8h-1.1v-5.8h-2.2V12.7z"/>
	<path class="st5" d="M2.7,12.7h1.1v2.7h1.5c1,0,1.7,0.2,2.2,0.6c0.5,0.4,0.8,0.9,0.8,1.5S8.1,18.6,7.7,19c-0.4,0.4-1.1,0.6-2.1,0.6
		H2.7V12.7z M3.8,18.5H5c0.7,0,1.2-0.1,1.6-0.3c0.3-0.2,0.5-0.5,0.5-0.8S7,16.8,6.8,16.6s-0.7-0.3-1.5-0.3H3.8V18.5z"/>
	<path class="st5" d="M14,17l1.1,0.1c-0.1,0.8-0.4,1.4-0.9,1.8s-1.1,0.7-1.9,0.7c-0.9,0-1.7-0.3-2.2-0.9c-0.6-0.6-0.8-1.5-0.8-2.6
		c0-0.7,0.1-1.4,0.4-1.9s0.6-1,1.1-1.2c0.5-0.3,1-0.4,1.6-0.4c0.7,0,1.3,0.2,1.8,0.6s0.8,0.9,0.9,1.6L14,15c-0.1-0.5-0.3-0.8-0.6-1
		c-0.3-0.2-0.6-0.3-1-0.3c-0.6,0-1.1,0.2-1.4,0.6s-0.5,1.1-0.5,2s0.2,1.6,0.5,2s0.8,0.6,1.4,0.6c0.5,0,0.8-0.1,1.1-0.4
		C13.7,18,13.9,17.6,14,17z"/>
	<path class="st5" d="M21.4,12.7v6.8h-1.1v-2.6h-0.7c-0.4,0-0.7,0.1-0.9,0.2c-0.2,0.1-0.5,0.4-0.9,1l-1,1.5h-1.4l1.2-1.8
		c0.4-0.6,0.8-0.9,1.1-0.9c-0.7-0.1-1.1-0.3-1.5-0.7c-0.4-0.4-0.4-1-0.4-1.5c0-0.6,0.2-1.1,0.6-1.4s1-0.5,1.8-0.5h3.2V12.7z
		 M20.3,13.6h-1.6c-0.7,0-1.1,0.1-1.3,0.3s-0.3,0.5-0.3,0.7c0,0.4,0.1,0.7,0.4,0.9s0.8,0.3,1.5,0.3h1.3V13.6z"/>
	<path class="st5" d="M26.8,12.7H28v2.9c0.4,0,0.6-0.1,0.8-0.2s0.4-0.5,0.6-1.2c0.2-0.5,0.4-0.9,0.5-1.1c0.1-0.2,0.3-0.3,0.5-0.3
		c0.2-0.1,0.5-0.1,0.9-0.1h0.2v1h-0.3c-0.3,0-0.5,0-0.6,0.1s-0.2,0.4-0.4,0.8c-0.2,0.4-0.3,0.8-0.5,0.9c-0.1,0.2-0.4,0.3-0.7,0.5
		c0.5,0.1,1,0.6,1.5,1.4l1.3,2.1h-1.3l-1.2-2.1c-0.3-0.4-0.5-0.7-0.7-0.8c-0.2-0.1-0.4-0.2-0.7-0.2v3.1h-1.1V12.7z"/>
	<path class="st5" d="M40.6,17l1.1,0.1c-0.1,0.8-0.4,1.4-0.9,1.8s-1.1,0.7-1.9,0.7c-0.9,0-1.7-0.3-2.2-0.9c-0.6-0.6-0.8-1.5-0.8-2.6
		c0-0.7,0.1-1.4,0.4-1.9c0.2-0.5,0.6-1,1.1-1.2c0.5-0.3,1-0.4,1.6-0.4c0.7,0,1.3,0.2,1.8,0.6s0.8,0.9,0.9,1.6L40.6,15
		c-0.1-0.5-0.3-0.8-0.6-1c-0.3-0.2-0.6-0.3-1-0.3c-0.6,0-1.1,0.2-1.4,0.6s-0.5,1.1-0.5,2s0.2,1.6,0.5,2s0.8,0.6,1.4,0.6
		c0.5,0,0.8-0.1,1.1-0.4S40.5,17.6,40.6,17z"/>
	<path class="st5" d="M42.7,12.7h5.4v6.8h-1.2v-5.8h-3.1v5.8h-1.2L42.7,12.7L42.7,12.7z"/>
	<path class="st5" d="M49.8,12.7H51v5.2l3.2-5.2h1.2v6.8h-1.2v-5.1L51,19.5h-1.2V12.7z"/>
	<path class="st5" d="M61.5,17l1.1,0.1c-0.1,0.8-0.4,1.4-0.9,1.8s-1.1,0.7-1.9,0.7c-0.9,0-1.7-0.3-2.2-0.9c-0.6-0.6-0.8-1.5-0.8-2.6
		c0-0.7,0.1-1.4,0.4-1.9c0.2-0.5,0.6-1,1.1-1.2c0.5-0.3,1-0.4,1.6-0.4c0.7,0,1.3,0.2,1.8,0.6s0.8,0.9,0.9,1.6L61.5,15
		c-0.1-0.5-0.3-0.8-0.6-1c-0.3-0.2-0.6-0.3-1-0.3c-0.6,0-1.1,0.2-1.4,0.6s-0.5,1.1-0.5,2s0.2,1.6,0.5,2s0.8,0.6,1.4,0.6
		c0.5,0,0.8-0.1,1.1-0.4S61.5,17.6,61.5,17z"/>
	<path class="st5" d="M63.6,12.7h1.2v2.9c0.4,0,0.6-0.1,0.8-0.2c0.1-0.1,0.4-0.5,0.6-1.2c0.2-0.5,0.4-0.9,0.5-1.1
		c0.1-0.2,0.3-0.3,0.5-0.3s0.5-0.1,0.9-0.1h0.2v1H68c-0.3,0-0.5,0-0.6,0.1s-0.2,0.4-0.4,0.8c-0.2,0.4-0.3,0.8-0.5,0.9
		c-0.1,0.2-0.4,0.3-0.7,0.5c0.5,0.1,1,0.6,1.5,1.4l1.3,2.1h-1.3l-1.2-2.1c-0.3-0.4-0.5-0.7-0.7-0.8c-0.2-0.1-0.4-0.2-0.7-0.2v3.1
		h-1.2v-6.8H63.6z"/>
	<path class="st5" d="M69.5,22.1L69.4,21c0.3,0.1,0.5,0.1,0.7,0.1c0.3,0,0.5,0,0.6-0.1c0.2-0.1,0.3-0.2,0.4-0.4
		c0.1-0.1,0.2-0.4,0.4-0.9c0-0.1,0.1-0.2,0.1-0.3L69,12.6h1.2l1.4,3.9c0.2,0.5,0.3,1,0.5,1.6c0.1-0.5,0.3-1,0.5-1.5l1.5-4h1.2
		l-2.6,6.9c-0.3,0.7-0.5,1.3-0.6,1.5c-0.2,0.4-0.4,0.7-0.7,0.8c-0.3,0.2-0.6,0.3-0.9,0.3C70,22.2,69.7,22.2,69.5,22.1z"/>
	<path class="st5" d="M79.7,12.7h2.7c0.7,0,1.1,0.1,1.5,0.2s0.6,0.3,0.8,0.6s0.3,0.6,0.3,1c0,0.3-0.1,0.6-0.2,0.8
		c-0.1,0.2-0.3,0.4-0.6,0.6c0.3,0.1,0.6,0.3,0.8,0.6s0.3,0.6,0.3,1c0,0.6-0.3,1.1-0.7,1.4s-1,0.5-1.8,0.5h-3.1V12.7z M80.9,15.5h1.2
		c0.5,0,0.8,0,1-0.1s0.3-0.2,0.5-0.3c0.1-0.2,0.2-0.3,0.2-0.6c0-0.4-0.1-0.6-0.4-0.7c-0.3-0.1-0.7-0.2-1.3-0.2h-1.3v1.9H80.9z
		 M80.9,18.5h1.5c0.7,0,1.1-0.1,1.3-0.2c0.2-0.2,0.4-0.4,0.4-0.8c0-0.2-0.1-0.4-0.2-0.6s-0.3-0.3-0.5-0.4c-0.2,0-0.6-0.1-1.1-0.1
		h-1.4V18.5z"/>
	<path class="st5" d="M86.1,16.1c0-1.3,0.3-2.2,1-2.8c0.6-0.5,1.3-0.8,2.1-0.8c0.9,0,1.7,0.3,2.3,0.9c0.6,0.6,0.9,1.5,0.9,2.5
		c0,0.9-0.1,1.6-0.4,2.1c-0.3,0.5-0.6,0.9-1.1,1.2c-0.5,0.3-1,0.4-1.6,0.4c-1,0-1.7-0.3-2.3-0.9S86.1,17.2,86.1,16.1z M87.3,16.1
		c0,0.9,0.2,1.5,0.6,2c0.4,0.4,0.9,0.6,1.4,0.6c0.6,0,1-0.2,1.4-0.7c0.4-0.4,0.6-1.1,0.6-2c0-0.8-0.2-1.5-0.6-1.9
		c-0.4-0.4-0.9-0.6-1.4-0.6c-0.6,0-1.1,0.2-1.4,0.6C87.5,14.6,87.3,15.2,87.3,16.1z"/>
	<path class="st5" d="M93.8,12.7h5.4v6.8H98v-5.8h-3.1v5.8h-1.1V12.7z"/>
	<path class="st5" d="M100.9,22.1v-9.4h1v0.9c0.2-0.3,0.5-0.6,0.8-0.8s0.7-0.3,1.1-0.3c0.6,0,1.1,0.1,1.5,0.4c0.4,0.3,0.8,0.7,1,1.3
		c0.2,0.5,0.3,1.1,0.3,1.8s-0.1,1.3-0.4,1.9c-0.2,0.6-0.6,1-1.1,1.3s-1,0.4-1.5,0.4c-0.4,0-0.7-0.1-1-0.2c-0.3-0.2-0.6-0.4-0.8-0.6
		v3.3C101.8,22.1,100.9,22.1,100.9,22.1z M101.9,16.1c0,0.9,0.2,1.5,0.5,1.9s0.8,0.6,1.3,0.6s0.9-0.2,1.3-0.6c0.4-0.4,0.5-1.1,0.5-2
		c0-0.9-0.2-1.5-0.5-1.9c-0.4-0.4-0.8-0.6-1.3-0.6s-0.9,0.2-1.3,0.7S101.9,15.3,101.9,16.1z"/>
	<path class="st5" d="M107.7,16.1c0-1.3,0.3-2.2,1-2.8c0.6-0.5,1.3-0.8,2.1-0.8c0.9,0,1.7,0.3,2.3,0.9c0.6,0.6,0.9,1.5,0.9,2.5
		c0,0.9-0.1,1.6-0.4,2.1c-0.3,0.5-0.6,0.9-1.1,1.2c-0.5,0.3-1,0.4-1.6,0.4c-1,0-1.7-0.3-2.3-0.9S107.7,17.2,107.7,16.1z M108.9,16.1
		c0,0.9,0.2,1.5,0.6,2c0.4,0.4,0.9,0.6,1.4,0.6c0.6,0,1-0.2,1.4-0.7c0.4-0.4,0.6-1.1,0.6-2c0-0.8-0.2-1.5-0.6-1.9
		c-0.4-0.4-0.9-0.6-1.4-0.6c-0.6,0-1.1,0.2-1.4,0.6C109.1,14.6,108.9,15.2,108.9,16.1z"/>
	<path class="st5" d="M119.9,17l1.1,0.1c-0.1,0.8-0.4,1.4-0.9,1.8s-1.1,0.7-1.9,0.7c-0.9,0-1.7-0.3-2.2-0.9
		c-0.6-0.6-0.8-1.5-0.8-2.6c0-0.7,0.1-1.4,0.4-1.9c0.2-0.5,0.6-1,1.1-1.2c0.5-0.3,1-0.4,1.6-0.4c0.7,0,1.3,0.2,1.8,0.6
		s0.8,0.9,0.9,1.6l-1.1,0.2c-0.1-0.5-0.3-0.8-0.6-1s-0.6-0.3-1-0.3c-0.6,0-1.1,0.2-1.4,0.6c-0.4,0.4-0.5,1.1-0.5,2s0.2,1.6,0.5,2
		s0.8,0.6,1.4,0.6c0.5,0,0.8-0.1,1.1-0.4S119.8,17.6,119.9,17z"/>
	<path class="st5" d="M121.7,16.1c0-1.3,0.3-2.2,1-2.8c0.6-0.5,1.3-0.8,2.1-0.8c0.9,0,1.7,0.3,2.3,0.9c0.6,0.6,0.9,1.5,0.9,2.5
		c0,0.9-0.1,1.6-0.4,2.1c-0.3,0.5-0.6,0.9-1.1,1.2c-0.5,0.3-1,0.4-1.6,0.4c-1,0-1.7-0.3-2.3-0.9S121.7,17.2,121.7,16.1z M122.9,16.1
		c0,0.9,0.2,1.5,0.6,2c0.4,0.4,0.9,0.6,1.4,0.6c0.6,0,1-0.2,1.4-0.7s0.6-1.1,0.6-2c0-0.8-0.2-1.5-0.6-1.9s-0.9-0.6-1.4-0.6
		c-0.6,0-1.1,0.2-1.4,0.6C123.1,14.6,122.9,15.2,122.9,16.1z"/>
	<path class="st5" d="M129.4,12.7h2.7c0.7,0,1.1,0.1,1.5,0.2s0.6,0.3,0.8,0.6s0.3,0.6,0.3,1c0,0.3-0.1,0.6-0.2,0.8
		c-0.1,0.2-0.3,0.4-0.6,0.6c0.3,0.1,0.6,0.3,0.8,0.6s0.3,0.6,0.3,1c0,0.6-0.3,1.1-0.7,1.4s-1,0.5-1.8,0.5h-3.1V12.7z M130.6,15.5
		h1.2c0.5,0,0.8,0,1-0.1s0.3-0.2,0.5-0.3s0.2-0.3,0.2-0.6c0-0.4-0.1-0.6-0.4-0.7s-0.7-0.2-1.3-0.2h-1.3v1.9H130.6z M130.6,18.5h1.5
		c0.7,0,1.1-0.1,1.3-0.2s0.4-0.4,0.4-0.8c0-0.2-0.1-0.4-0.2-0.6s-0.3-0.3-0.5-0.4c-0.2,0-0.6-0.1-1.1-0.1h-1.4V18.5z"/>
</g>
<g>
	<path class="st6" d="M9.6,11.5l-1.7-0.4C8.3,9.8,9.3,9.1,11,9.1c1,0,1.8,0.2,2.3,0.7s0.8,1,0.8,1.6c0,0.4-0.1,0.8-0.4,1.1
		s-0.6,0.6-1.1,0.9c0.6,0.2,1,0.5,1.3,0.8s0.4,0.8,0.4,1.3c0,0.8-0.3,1.4-0.8,1.8s-1.4,0.7-2.5,0.7c-0.9,0-1.6-0.1-2.1-0.4
		S8,16.6,7.8,15.8l1.6-0.5c0.2,0.5,0.4,0.8,0.7,1s0.6,0.2,1,0.2c0.5,0,0.9-0.1,1.2-0.4c0.2-0.2,0.4-0.5,0.4-0.8
		c0-0.4-0.1-0.6-0.4-0.8s-0.7-0.3-1.3-0.3h-0.4v-1.3h0.2c0.5,0,0.9-0.1,1.2-0.4s0.4-0.6,0.4-0.9c0-0.3-0.1-0.6-0.3-0.8
		s-0.6-0.3-1-0.3C10.3,10.5,9.8,10.8,9.6,11.5z"/>
	<path class="st6" d="M17.1,13.5l-1.5-0.3c0.2-0.6,0.5-1,0.9-1.3s1-0.4,1.8-0.4c0.7,0,1.3,0.1,1.6,0.3s0.6,0.4,0.8,0.7
		s0.2,0.8,0.2,1.5l0,1.9c0,0.5,0,1,0.1,1.2s0.2,0.5,0.3,0.8h-1.6c0-0.1-0.1-0.3-0.2-0.5c0-0.1,0-0.2-0.1-0.2
		c-0.3,0.3-0.6,0.5-0.9,0.6s-0.7,0.2-1,0.2c-0.6,0-1.1-0.2-1.5-0.5c-0.4-0.3-0.6-0.8-0.6-1.3c0-0.4,0.1-0.7,0.3-0.9s0.4-0.5,0.7-0.6
		s0.7-0.3,1.3-0.4c0.8-0.1,1.3-0.3,1.6-0.4v-0.2c0-0.3-0.1-0.5-0.2-0.7s-0.5-0.2-0.9-0.2c-0.3,0-0.5,0.1-0.7,0.2
		S17.2,13.2,17.1,13.5z M19.3,14.8c-0.2,0.1-0.5,0.2-1,0.3s-0.8,0.2-0.9,0.3c-0.2,0.2-0.3,0.3-0.3,0.6c0,0.2,0.1,0.4,0.3,0.6
		s0.4,0.3,0.7,0.3c0.3,0,0.6-0.1,0.8-0.3c0.2-0.1,0.3-0.3,0.4-0.5c0-0.1,0.1-0.4,0.1-0.8V14.8z"/>
	<path class="st6" d="M27.7,17.8H23v1.6h-1.3v-3h0.7c0.3-0.3,0.5-0.8,0.7-1.5s0.3-1.8,0.3-3.4h5v4.9H29v3h-1.3V17.8z M26.7,16.4
		l0-3.5h-2c-0.1,1.7-0.3,2.9-0.8,3.5H26.7z"/>
	<path class="st6" d="M31.4,13.5l-1.5-0.3c0.2-0.6,0.5-1,0.9-1.3s1-0.4,1.8-0.4c0.7,0,1.3,0.1,1.6,0.3s0.6,0.4,0.8,0.7
		s0.2,0.8,0.2,1.5l0,1.9c0,0.5,0,1,0.1,1.2s0.2,0.5,0.3,0.8h-1.6c0-0.1-0.1-0.3-0.2-0.5c0-0.1,0-0.2-0.1-0.2
		c-0.3,0.3-0.6,0.5-0.9,0.6s-0.7,0.2-1,0.2c-0.6,0-1.1-0.2-1.5-0.5s-0.6-0.8-0.6-1.3c0-0.4,0.1-0.7,0.3-0.9s0.4-0.5,0.7-0.6
		s0.7-0.3,1.3-0.4c0.8-0.1,1.3-0.3,1.6-0.4v-0.2c0-0.3-0.1-0.5-0.2-0.7s-0.5-0.2-0.9-0.2c-0.3,0-0.5,0.1-0.7,0.2
		S31.5,13.2,31.4,13.5z M33.6,14.8c-0.2,0.1-0.5,0.2-1,0.3s-0.8,0.2-0.9,0.3c-0.2,0.2-0.3,0.3-0.3,0.6c0,0.2,0.1,0.4,0.3,0.6
		s0.4,0.3,0.7,0.3c0.3,0,0.6-0.1,0.8-0.3c0.2-0.1,0.3-0.3,0.4-0.5c0-0.1,0.1-0.4,0.1-0.8V14.8z"/>
	<path class="st6" d="M36.8,11.6h1.6v3.9l2.5-3.9h1.6v6.2H41v-4l-2.6,4h-1.6V11.6z M40.7,9h0.8c0,0.5-0.2,0.9-0.6,1.3
		s-0.7,0.5-1.3,0.5s-0.9-0.2-1.3-0.5S37.9,9.6,37.9,9h0.8c0,0.3,0.1,0.5,0.3,0.6s0.4,0.2,0.7,0.2s0.6-0.1,0.7-0.2S40.7,9.3,40.7,9z"
		/>
	<path class="st6" d="M43.5,11.6h5.6v1.3h-2v4.9h-1.6v-4.9h-2V11.6z"/>
	<path class="st6" d="M53.7,15.8l1.6,0.3c-0.2,0.6-0.5,1.1-1,1.4s-1,0.5-1.7,0.5c-1.1,0-1.9-0.4-2.4-1.1c-0.4-0.6-0.6-1.3-0.6-2.1
		c0-1,0.3-1.8,0.8-2.4s1.2-0.9,2-0.9c0.9,0,1.7,0.3,2.2,0.9s0.8,1.5,0.8,2.8h-4.1c0,0.5,0.1,0.9,0.4,1.1s0.6,0.4,0.9,0.4
		c0.3,0,0.5-0.1,0.7-0.2S53.6,16.1,53.7,15.8z M53.8,14.1c0-0.5-0.1-0.8-0.4-1.1s-0.5-0.4-0.9-0.4c-0.4,0-0.7,0.1-0.9,0.4
		s-0.3,0.6-0.3,1.1H53.8z"/>
	<path class="st6" d="M65.5,13.4l-1.6,0.3c-0.1-0.3-0.2-0.6-0.4-0.7s-0.4-0.2-0.8-0.2c-0.4,0-0.7,0.1-1,0.4s-0.4,0.8-0.4,1.4
		c0,0.7,0.1,1.3,0.4,1.6c0.2,0.3,0.6,0.5,1,0.5c0.3,0,0.6-0.1,0.8-0.3s0.3-0.5,0.4-0.9l1.6,0.3c-0.2,0.7-0.5,1.3-1,1.7
		s-1.1,0.6-1.9,0.6c-0.9,0-1.6-0.3-2.2-0.9s-0.8-1.4-0.8-2.4c0-1,0.3-1.8,0.8-2.4s1.3-0.9,2.2-0.9c0.8,0,1.4,0.2,1.8,0.5
		S65.3,12.7,65.5,13.4z"/>
	<path class="st6" d="M66.8,11.6h3.6c0.7,0,1.3,0.1,1.7,0.4s0.6,0.7,0.6,1.2c0,0.3-0.1,0.7-0.3,0.9s-0.5,0.4-0.8,0.5
		c0.4,0.1,0.8,0.3,1,0.6s0.3,0.6,0.3,0.9c0,0.5-0.2,0.9-0.5,1.2s-0.9,0.5-1.6,0.5h-3.9V11.6z M68.5,14.2h1.1c0.5,0,0.9-0.1,1.1-0.2
		s0.3-0.3,0.3-0.6c0-0.3-0.1-0.4-0.3-0.6s-0.6-0.2-1.1-0.2h-1.1V14.2z M68.5,16.7h1.3c0.5,0,0.8-0.1,1-0.2s0.3-0.3,0.3-0.6
		c0-0.3-0.1-0.5-0.4-0.6s-0.7-0.2-1.4-0.2h-0.8V16.7z"/>
	<path class="st6" d="M73.6,14.6c0-0.5,0.1-1.1,0.4-1.6s0.7-0.9,1.1-1.2s1-0.4,1.7-0.4c0.9,0,1.7,0.3,2.3,0.9s0.9,1.4,0.9,2.3
		c0,0.9-0.3,1.7-0.9,2.3s-1.4,0.9-2.3,0.9c-0.6,0-1.1-0.1-1.6-0.4s-0.9-0.6-1.2-1.1C73.8,15.9,73.6,15.3,73.6,14.6z M75.3,14.7
		c0,0.6,0.1,1.1,0.4,1.4c0.3,0.3,0.7,0.5,1.1,0.5s0.8-0.2,1.1-0.5c0.3-0.3,0.4-0.8,0.4-1.4c0-0.6-0.1-1.1-0.4-1.4s-0.7-0.5-1.1-0.5
		s-0.8,0.2-1.1,0.5S75.3,14.1,75.3,14.7z"/>
	<path class="st6" d="M81.3,11.6h1.6v3.9l2.5-3.9H87v6.2h-1.6v-4l-2.6,4h-1.6V11.6z M85.2,9H86c0,0.5-0.2,0.9-0.6,1.3
		s-0.7,0.5-1.3,0.5s-0.9-0.2-1.3-0.5C82.6,10,82.4,9.6,82.4,9h0.8c0,0.3,0.1,0.5,0.3,0.6s0.4,0.2,0.7,0.2s0.6-0.1,0.7-0.2
		S85.2,9.3,85.2,9z"/>
	<path class="st6" d="M92.1,11.6h3.6c0.7,0,1.3,0.1,1.7,0.4s0.6,0.7,0.6,1.2c0,0.3-0.1,0.7-0.3,0.9s-0.5,0.4-0.8,0.5
		c0.4,0.1,0.8,0.3,1,0.6s0.3,0.6,0.3,0.9c0,0.5-0.2,0.9-0.5,1.2s-0.9,0.5-1.6,0.5h-3.9V11.6z M93.7,14.2h1.1c0.5,0,0.9-0.1,1.1-0.2
		s0.3-0.3,0.3-0.6c0-0.3-0.1-0.4-0.3-0.6s-0.6-0.2-1.1-0.2h-1.1V14.2z M93.7,16.7H95c0.5,0,0.8-0.1,1-0.2s0.3-0.3,0.3-0.6
		c0-0.3-0.1-0.5-0.4-0.6s-0.7-0.2-1.4-0.2h-0.8V16.7z"/>
	<path class="st6" d="M98.9,14.6c0-0.5,0.1-1.1,0.4-1.6s0.7-0.9,1.1-1.2s1-0.4,1.7-0.4c0.9,0,1.7,0.3,2.3,0.9s0.9,1.4,0.9,2.3
		c0,0.9-0.3,1.7-0.9,2.3s-1.4,0.9-2.3,0.9c-0.6,0-1.1-0.1-1.6-0.4s-0.9-0.6-1.2-1.1C99,15.9,98.9,15.3,98.9,14.6z M100.6,14.7
		c0,0.6,0.1,1.1,0.4,1.4c0.3,0.3,0.7,0.5,1.1,0.5s0.8-0.2,1.1-0.5c0.3-0.3,0.4-0.8,0.4-1.4c0-0.6-0.1-1.1-0.4-1.4s-0.7-0.5-1.1-0.5
		s-0.8,0.2-1.1,0.5S100.6,14.1,100.6,14.7z"/>
	<path class="st6" d="M106.5,11.6h5.5v6.2h-1.6v-4.9h-2.2v4.9h-1.6V11.6z"/>
	<path class="st6" d="M113.8,11.6h1.5v0.9c0.2-0.3,0.5-0.6,0.8-0.8s0.7-0.3,1.1-0.3c0.7,0,1.3,0.3,1.8,0.8s0.8,1.4,0.8,2.4
		c0,1-0.3,1.8-0.8,2.4s-1.1,0.9-1.8,0.9c-0.3,0-0.7-0.1-0.9-0.2s-0.6-0.4-0.9-0.7v3.1h-1.6V11.6z M115.4,14.6c0,0.7,0.1,1.2,0.4,1.5
		c0.3,0.3,0.6,0.5,1,0.5c0.4,0,0.7-0.2,1-0.5c0.3-0.3,0.4-0.8,0.4-1.5c0-0.7-0.1-1.1-0.4-1.5s-0.6-0.5-1-0.5c-0.4,0-0.7,0.2-1,0.5
		S115.4,14,115.4,14.6z"/>
	<path class="st6" d="M120.8,14.6c0-0.5,0.1-1.1,0.4-1.6s0.7-0.9,1.1-1.2s1-0.4,1.7-0.4c0.9,0,1.7,0.3,2.3,0.9s0.9,1.4,0.9,2.3
		c0,0.9-0.3,1.7-0.9,2.3s-1.4,0.9-2.3,0.9c-0.6,0-1.1-0.1-1.6-0.4s-0.9-0.6-1.2-1.1C120.9,15.9,120.8,15.3,120.8,14.6z M122.5,14.7
		c0,0.6,0.1,1.1,0.4,1.4c0.3,0.3,0.7,0.5,1.1,0.5s0.8-0.2,1.1-0.5c0.3-0.3,0.4-0.8,0.4-1.4c0-0.6-0.1-1.1-0.4-1.4s-0.7-0.5-1.1-0.5
		s-0.8,0.2-1.1,0.5S122.5,14.1,122.5,14.7z"/>
	<path class="st6" d="M133.8,13.4l-1.6,0.3c-0.1-0.3-0.2-0.6-0.4-0.7s-0.4-0.2-0.8-0.2c-0.4,0-0.7,0.1-1,0.4s-0.4,0.8-0.4,1.4
		c0,0.7,0.1,1.3,0.4,1.6c0.2,0.3,0.6,0.5,1,0.5c0.3,0,0.6-0.1,0.8-0.3s0.3-0.5,0.4-0.9l1.6,0.3c-0.2,0.7-0.5,1.3-1,1.7
		s-1.1,0.6-1.9,0.6c-0.9,0-1.6-0.3-2.2-0.9s-0.8-1.4-0.8-2.4c0-1,0.3-1.8,0.8-2.4s1.3-0.9,2.2-0.9c0.8,0,1.4,0.2,1.8,0.5
		S133.6,12.7,133.8,13.4z"/>
</g>
</svg>
