<?xml version="1.0" encoding="utf-8"?>
<!-- Generator: Adobe Illustrator 22.1.0, SVG Export Plug-In . SVG Version: 6.00 Build 0)  -->
<svg version="1.1" id="Слой_1" xmlns="http://www.w3.org/2000/svg" xmlns:xlink="http://www.w3.org/1999/xlink" x="0px" y="0px"
	 viewBox="0 0 229 29.8" style="enable-background:new 0 0 229 29.8;" xml:space="preserve">
<style type="text/css">
	.st0{fill:#0AB1F2;}
	.st1{display:none;fill:#FFFFFF;enable-background:new    ;}
	.st2{font-family:'Arial-BoldMT';}
	.st3{font-size:13.09px;}
	.st4{enable-background:new    ;}
	.st5{fill:#FFFFFF;}
</style>
<title>назад 7</title>
<path class="st0" d="M1.6,16.6L11.3,28c1,1.2,2.5,1.8,4,1.8H38V0H15.2c-1.5,0-3,0.7-4,1.8L1.6,13.3C0.8,14.3,0.8,15.6,1.6,16.6z"/>
<rect x="32.2" y="0" class="st0" width="104.1" height="29.8"/>
<path class="st0" d="M223.8,29.8c1.9,0.1,3.4-1.4,3.5-3.3c0,0,0-0.1,0-0.1v-23c0-1.9-1.6-3.4-3.5-3.4h-94v29.8H223.8z"/>
<text transform="matrix(1 0 0 1 73.79 19.4802)" class="st1 st2 st3">т</text>
<text transform="matrix(1 0 0 1 80.0298 19.4802)" class="st1 st2 st3">о</text>
<text transform="matrix(1 0 0 1 88.02 19.4802)" class="st1 st2 st3">в</text>
<g class="st4">
	<path class="st5" d="M20.9,10.1h3.7c0.7,0,1.3,0,1.7,0.1s0.7,0.2,1,0.4s0.5,0.5,0.7,0.8c0.2,0.3,0.3,0.7,0.3,1.1
		c0,0.4-0.1,0.8-0.4,1.2s-0.6,0.6-1,0.8c0.6,0.2,1,0.5,1.3,0.9c0.3,0.4,0.5,0.9,0.5,1.4c0,0.4-0.1,0.8-0.3,1.2
		c-0.2,0.4-0.5,0.7-0.8,1c-0.3,0.2-0.8,0.4-1.3,0.4c-0.3,0-1.1,0.1-2.3,0.1h-3.2V10.1z M22.8,11.7v2.2h1.2c0.7,0,1.2,0,1.4,0
		c0.3,0,0.6-0.2,0.8-0.3c0.2-0.2,0.3-0.4,0.3-0.7c0-0.3-0.1-0.5-0.2-0.7c-0.2-0.2-0.4-0.3-0.7-0.3c-0.2,0-0.7,0-1.6,0H22.8z
		 M22.8,15.4v2.5h1.8c0.7,0,1.1,0,1.3-0.1c0.3-0.1,0.5-0.2,0.7-0.4c0.2-0.2,0.3-0.5,0.3-0.8c0-0.3-0.1-0.5-0.2-0.7
		c-0.1-0.2-0.3-0.3-0.6-0.4c-0.3-0.1-0.8-0.1-1.7-0.1H22.8z"/>
	<path class="st5" d="M34.3,17.3l1.8,0.3c-0.2,0.7-0.6,1.2-1.1,1.5s-1.1,0.5-1.9,0.5c-1.2,0-2.1-0.4-2.6-1.2
		c-0.4-0.6-0.7-1.4-0.7-2.3c0-1.1,0.3-2,0.9-2.6c0.6-0.6,1.3-1,2.2-1c1,0,1.8,0.3,2.4,1c0.6,0.7,0.9,1.7,0.8,3.1h-4.5
		c0,0.5,0.2,0.9,0.4,1.2c0.3,0.3,0.6,0.4,1,0.4c0.3,0,0.5-0.1,0.7-0.2C34.1,17.9,34.2,17.7,34.3,17.3z M34.4,15.5
		c0-0.5-0.1-0.9-0.4-1.2c-0.3-0.3-0.6-0.4-0.9-0.4c-0.4,0-0.7,0.1-1,0.4c-0.3,0.3-0.4,0.7-0.4,1.2H34.4z"/>
	<path class="st5" d="M37.6,12.7h1.7v1c0.2-0.3,0.5-0.6,0.9-0.8c0.4-0.2,0.8-0.3,1.2-0.3c0.8,0,1.5,0.3,2,0.9
		c0.5,0.6,0.8,1.5,0.8,2.6c0,1.1-0.3,2-0.8,2.6c-0.6,0.6-1.2,0.9-2,0.9c-0.4,0-0.7-0.1-1-0.2s-0.6-0.4-1-0.8v3.4h-1.8V12.7z
		 M39.4,16c0,0.8,0.2,1.3,0.5,1.7s0.7,0.5,1.1,0.5c0.4,0,0.8-0.2,1-0.5c0.3-0.3,0.4-0.9,0.4-1.6c0-0.7-0.1-1.2-0.4-1.6
		c-0.3-0.3-0.6-0.5-1.1-0.5c-0.4,0-0.8,0.2-1.1,0.5C39.5,14.8,39.4,15.3,39.4,16z"/>
	<path class="st5" d="M45.6,12.7h1.8v2.5h2.6v-2.5h1.8v6.8h-1.8v-2.9h-2.6v2.9h-1.8V12.7z"/>
	<path class="st5" d="M52.7,12.7h1.9l1.6,4.8l1.6-4.8h1.9l-2.4,6.5l-0.4,1.2c-0.2,0.4-0.3,0.7-0.5,0.9c-0.1,0.2-0.3,0.4-0.5,0.5
		c-0.2,0.1-0.4,0.2-0.7,0.3c-0.3,0.1-0.6,0.1-0.9,0.1c-0.3,0-0.7,0-1-0.1l-0.2-1.4c0.3,0.1,0.5,0.1,0.8,0.1c0.4,0,0.7-0.1,0.9-0.4
		c0.2-0.2,0.4-0.6,0.5-0.9L52.7,12.7z"/>
	<path class="st5" d="M60.2,12.7h6.1v1.5h-2.2v5.3h-1.8v-5.3h-2.2V12.7z"/>
	<path class="st5" d="M67.4,12.7h1.8v2.8H71c0.7,0,1.2,0.1,1.6,0.2c0.4,0.1,0.7,0.3,0.9,0.7s0.4,0.7,0.4,1.2c0,0.7-0.2,1.1-0.7,1.5
		c-0.5,0.3-1.1,0.5-2,0.5h-3.9V12.7z M69.2,18.3h1.7c0.5,0,0.9-0.1,1-0.3c0.1-0.2,0.2-0.4,0.2-0.6c0-0.3-0.1-0.6-0.4-0.7
		c-0.3-0.1-0.7-0.2-1.4-0.2h-1.2V18.3z"/>
	<path class="st5" d="M81.4,14.7L79.6,15c-0.1-0.4-0.2-0.6-0.4-0.8C79,14,78.7,14,78.4,14c-0.4,0-0.8,0.2-1.1,0.5
		c-0.3,0.3-0.4,0.8-0.4,1.5c0,0.8,0.1,1.4,0.4,1.7c0.3,0.3,0.6,0.5,1.1,0.5c0.3,0,0.6-0.1,0.8-0.3c0.2-0.2,0.4-0.5,0.5-1l1.8,0.3
		c-0.2,0.8-0.5,1.4-1.1,1.8c-0.5,0.4-1.2,0.6-2.1,0.6c-1,0-1.8-0.3-2.4-0.9s-0.9-1.5-0.9-2.6c0-1.1,0.3-2,0.9-2.6
		c0.6-0.6,1.4-0.9,2.4-0.9c0.8,0,1.5,0.2,2,0.5C80.8,13.4,81.2,14,81.4,14.7z"/>
	<path class="st5" d="M88.5,12.7v6.8h-1.8v-2.8h-0.2c-0.4,0-0.7,0-0.9,0.1c-0.2,0.1-0.4,0.3-0.6,0.6L85,17.6l-1.2,1.9h-2.1l1.3-2
		c0.4-0.6,0.7-0.9,1-1c-0.5,0-0.9-0.2-1.2-0.6c-0.3-0.4-0.5-0.8-0.5-1.3c0-0.4,0.1-0.8,0.3-1.1c0.2-0.3,0.5-0.5,0.8-0.6
		c0.3-0.1,0.9-0.2,1.5-0.2H88.5z M86.8,13.8h-1.3c-0.5,0-0.8,0.1-1,0.2c-0.2,0.1-0.3,0.4-0.3,0.7c0,0.3,0.1,0.5,0.3,0.7
		c0.2,0.1,0.6,0.2,1.1,0.2h1.2V13.8z"/>
	<path class="st5" d="M93.9,12.7h1.8v2.8c0.3,0,0.5-0.1,0.6-0.3c0.1-0.1,0.3-0.5,0.4-1c0.2-0.7,0.5-1.1,0.8-1.3
		c0.3-0.2,0.6-0.3,1.1-0.3c0.1,0,0.4,0,0.7,0l0,1.2c-0.5,0-0.8,0-0.9,0.1c-0.1,0.1-0.3,0.4-0.4,0.8c-0.2,0.6-0.5,1-0.9,1.2
		c0.6,0.2,1,0.6,1.4,1.5c0,0,0,0.1,0.1,0.1l1,1.9h-1.9l-0.9-2c-0.2-0.4-0.3-0.7-0.5-0.8c-0.1-0.1-0.3-0.2-0.6-0.2v2.9h-1.8V12.7z"/>
	<path class="st5" d="M110.1,14.7l-1.8,0.3c-0.1-0.4-0.2-0.6-0.4-0.8c-0.2-0.2-0.5-0.3-0.8-0.3c-0.4,0-0.8,0.2-1.1,0.5
		s-0.4,0.8-0.4,1.5c0,0.8,0.1,1.4,0.4,1.7c0.3,0.3,0.6,0.5,1.1,0.5c0.3,0,0.6-0.1,0.8-0.3c0.2-0.2,0.4-0.5,0.5-1l1.8,0.3
		c-0.2,0.8-0.5,1.4-1.1,1.8c-0.5,0.4-1.2,0.6-2.1,0.6c-1,0-1.8-0.3-2.4-0.9s-0.9-1.5-0.9-2.6c0-1.1,0.3-2,0.9-2.6
		c0.6-0.6,1.4-0.9,2.4-0.9c0.8,0,1.5,0.2,2,0.5C109.6,13.4,109.9,14,110.1,14.7z"/>
	<path class="st5" d="M111.4,12.7h6v6.8h-1.8v-5.3h-2.4v5.3h-1.8V12.7z"/>
	<path class="st5" d="M119.3,12.7h1.7V17l2.8-4.3h1.8v6.8h-1.7v-4.3l-2.8,4.3h-1.7V12.7z"/>
	<path class="st5" d="M133.3,14.7l-1.8,0.3c-0.1-0.4-0.2-0.6-0.4-0.8c-0.2-0.2-0.5-0.3-0.8-0.3c-0.4,0-0.8,0.2-1.1,0.5
		c-0.3,0.3-0.4,0.8-0.4,1.5c0,0.8,0.1,1.4,0.4,1.7c0.3,0.3,0.6,0.5,1.1,0.5c0.3,0,0.6-0.1,0.8-0.3c0.2-0.2,0.4-0.5,0.5-1l1.8,0.3
		c-0.2,0.8-0.5,1.4-1.1,1.8c-0.5,0.4-1.2,0.6-2.1,0.6c-1,0-1.8-0.3-2.4-0.9s-0.9-1.5-0.9-2.6c0-1.1,0.3-2,0.9-2.6
		c0.6-0.6,1.4-0.9,2.4-0.9c0.8,0,1.5,0.2,2,0.5C132.8,13.4,133.1,14,133.3,14.7z"/>
	<path class="st5" d="M134.6,12.7h1.8v2.8c0.3,0,0.5-0.1,0.6-0.3c0.1-0.1,0.3-0.5,0.4-1c0.2-0.7,0.5-1.1,0.8-1.3s0.6-0.3,1.1-0.3
		c0.1,0,0.4,0,0.7,0l0,1.2c-0.5,0-0.8,0-0.9,0.1c-0.1,0.1-0.3,0.4-0.4,0.8c-0.2,0.6-0.5,1-0.9,1.2c0.6,0.2,1,0.6,1.4,1.5
		c0,0,0,0.1,0.1,0.1l1,1.9h-1.9l-0.9-2c-0.2-0.4-0.3-0.7-0.5-0.8c-0.1-0.1-0.3-0.2-0.6-0.2v2.9h-1.8V12.7z"/>
	<path class="st5" d="M140.4,12.7h1.9l1.6,4.8l1.6-4.8h1.9l-2.4,6.5l-0.4,1.2c-0.2,0.4-0.3,0.7-0.5,0.9c-0.1,0.2-0.3,0.4-0.5,0.5
		s-0.4,0.2-0.7,0.3c-0.3,0.1-0.6,0.1-0.9,0.1c-0.3,0-0.7,0-1-0.1l-0.2-1.4c0.3,0.1,0.5,0.1,0.8,0.1c0.4,0,0.7-0.1,0.9-0.4
		c0.2-0.2,0.4-0.6,0.5-0.9L140.4,12.7z"/>
	<path class="st5" d="M152.2,12.7h3.9c0.8,0,1.4,0.1,1.8,0.4c0.4,0.3,0.6,0.7,0.6,1.3c0,0.4-0.1,0.7-0.3,1s-0.5,0.5-0.8,0.6
		c0.5,0.1,0.8,0.3,1,0.6c0.2,0.3,0.3,0.7,0.3,1c0,0.5-0.2,1-0.6,1.3c-0.4,0.3-1,0.5-1.7,0.5h-4.3V12.7z M154,15.5h1.2
		c0.6,0,1-0.1,1.2-0.2c0.2-0.1,0.4-0.4,0.4-0.7c0-0.3-0.1-0.5-0.3-0.6c-0.2-0.1-0.6-0.2-1.2-0.2H154V15.5z M154,18.3h1.4
		c0.5,0,0.9-0.1,1.1-0.2c0.2-0.1,0.4-0.3,0.4-0.7c0-0.3-0.1-0.6-0.4-0.7c-0.3-0.1-0.8-0.2-1.6-0.2H154V18.3z"/>
	<path class="st5" d="M159.6,16c0-0.6,0.1-1.2,0.4-1.7c0.3-0.6,0.7-1,1.2-1.3s1.1-0.4,1.8-0.4c1,0,1.9,0.3,2.5,1
		c0.7,0.7,1,1.5,1,2.5c0,1-0.3,1.9-1,2.6c-0.7,0.7-1.5,1-2.5,1c-0.6,0-1.2-0.1-1.8-0.4s-1-0.7-1.3-1.2
		C159.8,17.4,159.6,16.8,159.6,16z M161.5,16.1c0,0.7,0.2,1.2,0.5,1.5c0.3,0.4,0.7,0.5,1.2,0.5s0.9-0.2,1.2-0.5
		c0.3-0.4,0.5-0.9,0.5-1.6c0-0.7-0.2-1.2-0.5-1.5c-0.3-0.4-0.7-0.5-1.2-0.5s-0.9,0.2-1.2,0.5C161.6,14.9,161.5,15.4,161.5,16.1z"/>
	<path class="st5" d="M168,12.7h6v6.8h-1.8v-5.3h-2.4v5.3H168V12.7z"/>
	<path class="st5" d="M175.9,12.7h1.7v1c0.2-0.3,0.5-0.6,0.9-0.8c0.4-0.2,0.8-0.3,1.2-0.3c0.8,0,1.5,0.3,2,0.9
		c0.5,0.6,0.8,1.5,0.8,2.6c0,1.1-0.3,2-0.8,2.6c-0.6,0.6-1.2,0.9-2,0.9c-0.4,0-0.7-0.1-1-0.2c-0.3-0.1-0.6-0.4-1-0.8v3.4h-1.8V12.7z
		 M177.7,16c0,0.8,0.2,1.3,0.5,1.7c0.3,0.4,0.7,0.5,1.1,0.5c0.4,0,0.8-0.2,1-0.5c0.3-0.3,0.4-0.9,0.4-1.6c0-0.7-0.1-1.2-0.4-1.6
		c-0.3-0.3-0.6-0.5-1.1-0.5c-0.4,0-0.8,0.2-1.1,0.5C177.8,14.8,177.7,15.3,177.7,16z"/>
	<path class="st5" d="M183.5,16c0-0.6,0.1-1.2,0.4-1.7c0.3-0.6,0.7-1,1.2-1.3s1.1-0.4,1.8-0.4c1,0,1.9,0.3,2.5,1
		c0.7,0.7,1,1.5,1,2.5c0,1-0.3,1.9-1,2.6c-0.7,0.7-1.5,1-2.5,1c-0.6,0-1.2-0.1-1.8-0.4s-1-0.7-1.3-1.2
		C183.7,17.4,183.5,16.8,183.5,16z M185.4,16.1c0,0.7,0.2,1.2,0.5,1.5c0.3,0.4,0.7,0.5,1.2,0.5s0.9-0.2,1.2-0.5
		c0.3-0.4,0.5-0.9,0.5-1.6c0-0.7-0.2-1.2-0.5-1.5c-0.3-0.4-0.7-0.5-1.2-0.5s-0.9,0.2-1.2,0.5C185.5,14.9,185.4,15.4,185.4,16.1z"/>
	<path class="st5" d="M197.7,14.7l-1.8,0.3c-0.1-0.4-0.2-0.6-0.4-0.8c-0.2-0.2-0.5-0.3-0.8-0.3c-0.4,0-0.8,0.2-1.1,0.5
		c-0.3,0.3-0.4,0.8-0.4,1.5c0,0.8,0.1,1.4,0.4,1.7c0.3,0.3,0.6,0.5,1.1,0.5c0.3,0,0.6-0.1,0.8-0.3c0.2-0.2,0.4-0.5,0.5-1l1.8,0.3
		c-0.2,0.8-0.5,1.4-1.1,1.8s-1.2,0.6-2.1,0.6c-1,0-1.8-0.3-2.4-0.9c-0.6-0.6-0.9-1.5-0.9-2.6c0-1.1,0.3-2,0.9-2.6
		c0.6-0.6,1.4-0.9,2.4-0.9c0.8,0,1.5,0.2,2,0.5C197.1,13.4,197.5,14,197.7,14.7z"/>
	<path class="st5" d="M198.6,16c0-0.6,0.1-1.2,0.4-1.7c0.3-0.6,0.7-1,1.2-1.3s1.1-0.4,1.8-0.4c1,0,1.9,0.3,2.5,1
		c0.7,0.7,1,1.5,1,2.5c0,1-0.3,1.9-1,2.6c-0.7,0.7-1.5,1-2.5,1c-0.6,0-1.2-0.1-1.8-0.4s-1-0.7-1.3-1.2
		C198.8,17.4,198.6,16.8,198.6,16z M200.5,16.1c0,0.7,0.2,1.2,0.5,1.5c0.3,0.4,0.7,0.5,1.2,0.5s0.9-0.2,1.2-0.5
		c0.3-0.4,0.5-0.9,0.5-1.6c0-0.7-0.2-1.2-0.5-1.5c-0.3-0.4-0.7-0.5-1.2-0.5s-0.9,0.2-1.2,0.5C200.6,14.9,200.5,15.4,200.5,16.1z"/>
	<path class="st5" d="M207.1,12.7h3.9c0.8,0,1.4,0.1,1.8,0.4c0.4,0.3,0.6,0.7,0.6,1.3c0,0.4-0.1,0.7-0.3,1c-0.2,0.3-0.5,0.5-0.8,0.6
		c0.5,0.1,0.8,0.3,1,0.6c0.2,0.3,0.3,0.7,0.3,1c0,0.5-0.2,1-0.6,1.3s-1,0.5-1.7,0.5h-4.3V12.7z M208.9,15.5h1.2c0.6,0,1-0.1,1.2-0.2
		s0.4-0.4,0.4-0.7c0-0.3-0.1-0.5-0.3-0.6c-0.2-0.1-0.6-0.2-1.2-0.2h-1.2V15.5z M208.9,18.3h1.4c0.5,0,0.9-0.1,1.1-0.2
		c0.2-0.1,0.4-0.3,0.4-0.7c0-0.3-0.1-0.6-0.4-0.7s-0.8-0.2-1.6-0.2h-0.9V18.3z"/>
</g>
</svg>
