<svg version="1.1" xmlns="http://www.w3.org/2000/svg" x="0" y="0" viewBox="0 0 133.3 29.8" xml:space="preserve"><style>.st0{fill:#4e8fbf}.st1{enable-background:new}.st2{fill:#fff}</style><path class="st0" d="M1.6 16.6L11.3 28c1 1.2 2.5 1.8 4 1.8H38V0H15.2c-1.5 0-3 .7-4 1.8L1.6 13.3c-.8 1-.8 2.3 0 3.3z"/><path class="st0" d="M128.8 29.8c1.9.1 3.4-1.4 3.5-3.3V3.4c0-1.9-1.6-3.4-3.5-3.4h-94v29.8h94z"/><g class="st1"><path class="st2" d="M11.9 10.1h3.7c.7 0 1.3 0 1.7.1s.7.2 1 .4.5.5.7.8c.2.3.3.7.3 1.1 0 .4-.1.8-.4 1.2s-.6.6-1 .8c.6.2 1 .5 1.3.9.3.4.5.9.5 1.4 0 .4-.1.8-.3 1.2-.2.4-.5.7-.8 1-.3.2-.8.4-1.3.4-.3 0-1.1.1-2.3.1h-3.2v-9.4zm1.9 1.6v2.2h2.6c.3 0 .6-.2.8-.3.2-.2.3-.4.3-.7 0-.3-.1-.5-.2-.7-.2-.2-.4-.3-.7-.3h-2.8zm0 3.7v2.5h1.8c.7 0 1.1 0 1.3-.1.3-.1.5-.2.7-.4.2-.2.3-.5.3-.8 0-.3-.1-.5-.2-.7-.1-.2-.3-.3-.6-.4-.3-.1-.8-.1-1.7-.1h-1.6zm17.1-.7l-1.7.3c-.1-.4-.2-.6-.4-.8-.3-.2-.5-.2-.9-.2s-.8.2-1.1.5c-.3.3-.4.8-.4 1.5 0 .8.1 1.4.4 1.7.3.3.6.5 1.1.5.3 0 .6-.1.8-.3.2-.2.4-.5.5-1l1.8.3c-.2.8-.5 1.4-1 1.8-.5.4-1.2.6-2.1.6-1 0-1.8-.3-2.4-.9-.6-.6-.9-1.5-.9-2.6s.3-2 .9-2.6 1.4-.9 2.4-.9c.8 0 1.5.2 2 .5s.8.9 1 1.6zm1.3-2h6v6.8h-1.8v-5.3H34v5.3h-1.8v-6.8zm8 0h1.7V17l2.8-4.3h1.8v6.8h-1.7v-4.3L42 19.5h-1.7v-6.8zm14 2l-1.8.3c-.1-.4-.2-.6-.4-.8-.2-.2-.5-.2-.8-.2-.4 0-.8.2-1.1.5s-.4.8-.4 1.5c0 .8.1 1.4.4 1.7.3.3.6.5 1.1.5.3 0 .6-.1.8-.3.2-.2.4-.5.5-1l1.8.3c-.2.8-.5 1.4-1.1 1.8-.5.4-1.2.6-2.1.6-1 0-1.8-.3-2.4-.9-.6-.6-.9-1.5-.9-2.6s.3-2 .9-2.6c.6-.6 1.4-.9 2.4-.9.8 0 1.5.2 2 .5s.8.9 1.1 1.6zm.9 1.3c0-.6.1-1.2.4-1.7.3-.6.7-1 1.2-1.3s1.1-.4 1.8-.4c1 0 1.9.3 2.5 1 .7.7 1 1.5 1 2.5s-.3 1.9-1 2.6c-.7.7-1.5 1-2.5 1-.6 0-1.2-.1-1.8-.4s-1-.7-1.3-1.2c-.1-.7-.3-1.3-.3-2.1zm1.8.1c0 .7.2 1.2.5 1.5.3.4.7.5 1.2.5s.9-.2 1.2-.5c.3-.4.5-.9.5-1.6 0-.7-.2-1.2-.5-1.5-.3-.4-.7-.5-1.2-.5s-.9.2-1.2.5c-.3.4-.5.9-.5 1.6zm6.5-3.4h1.8v2.8c.3 0 .5-.1.6-.3.1-.1.3-.5.4-1 .2-.7.5-1.1.8-1.3.3-.2.6-.3 1.1-.3h.7v1.2c-.5 0-.8 0-.9.1-.1.1-.3.4-.4.8-.2.6-.5 1-.9 1.2.6.2 1 .6 1.4 1.5 0 0 0 .1.1.1l1 1.9h-1.9l-.9-2c-.2-.4-.3-.7-.5-.8-.1-.1-.3-.2-.6-.2v2.9h-1.8v-6.6z"/></g><g class="st1"><path class="st2" d="M72.9 12.7H79v1.5h-2.2v5.3H75v-5.3h-2.2v-1.5z"/></g><g class="st1"><path class="st2" d="M79.6 16c0-.6.1-1.2.4-1.7.3-.6.7-1 1.2-1.3s1.1-.4 1.8-.4c1 0 1.9.3 2.5 1 .7.7 1 1.5 1 2.5s-.3 1.9-1 2.6c-.7.7-1.5 1-2.5 1-.6 0-1.2-.1-1.8-.4s-1-.7-1.3-1.2c-.2-.7-.3-1.3-.3-2.1zm1.8.1c0 .7.2 1.2.5 1.5.3.4.7.5 1.2.5s.9-.2 1.2-.5c.3-.4.5-.9.5-1.6 0-.7-.2-1.2-.5-1.5-.3-.4-.7-.5-1.2-.5s-.9.2-1.2.5c-.3.4-.5.9-.5 1.6z"/></g><g class="st1"><path class="st2" d="M88 12.7h3.9c.8 0 1.4.1 1.8.4s.6.7.6 1.3c0 .4-.1.7-.3 1-.2.3-.5.5-.8.6.5.1.8.3 1 .6.2.3.3.7.3 1 0 .5-.2 1-.6 1.3s-1 .5-1.7.5H88v-6.7zm1.8 2.8H91c.6 0 1-.1 1.2-.2s.4-.4.4-.7c0-.3-.1-.5-.3-.6-.2-.1-.6-.2-1.2-.2h-1.2v1.7zm0 2.8h1.4c.5 0 .9-.1 1.1-.2.2-.1.4-.3.4-.7 0-.3-.1-.6-.4-.7s-.8-.2-1.6-.2h-.9v1.8z"/></g><g class="st1"><path class="st2" d="M97.2 14.8l-1.6-.3c.2-.7.5-1.1.9-1.5.4-.3 1.1-.5 2-.5.8 0 1.4.1 1.8.3.4.2.7.4.8.7.2.3.2.8.2 1.6v2.1c0 .6 0 1 .1 1.3l.3.9H100c0-.1-.1-.3-.2-.5 0-.1-.1-.2-.1-.2-.3.3-.6.5-1 .7s-.7.2-1.1.2c-.7 0-1.2-.2-1.7-.6-.4-.4-.6-.9-.6-1.4 0-.4.1-.7.3-1 .2-.3.4-.5.8-.7.3-.2.8-.3 1.4-.4.8-.2 1.4-.3 1.7-.4v-.2c0-.3-.1-.6-.3-.7-.2-.1-.5-.2-1-.2-.3 0-.6.1-.7.2-.1 0-.2.2-.3.6zm2.4 1.4c-.2.1-.6.2-1.1.3-.5.1-.8.2-1 .3-.2.2-.4.4-.4.6 0 .3.1.5.3.7.2.2.4.3.7.3.3 0 .6-.1.9-.3.2-.2.4-.4.4-.6 0-.2.1-.4.1-.9v-.4zm3.5-3.5h1.7v1c.2-.3.5-.6.9-.8.4-.2.8-.3 1.2-.3.8 0 1.5.3 2 .9.5.6.8 1.5.8 2.6s-.3 2-.8 2.6c-.6.6-1.2.9-2 .9-.4 0-.7-.1-1-.2s-.6-.4-1-.8V22h-1.8v-9.3zm1.7 3.3c0 .8.2 1.3.5 1.7.3.4.7.5 1.1.5.4 0 .8-.2 1-.5.3-.3.4-.9.4-1.6 0-.7-.1-1.2-.4-1.6-.3-.3-.6-.5-1.1-.5-.4 0-.8.2-1.1.5-.2.3-.4.8-.4 1.5zm5.9 0c0-.6.1-1.2.4-1.7.3-.6.7-1 1.2-1.3s1.1-.4 1.8-.4c1 0 1.9.3 2.5 1 .7.7 1 1.5 1 2.5s-.3 1.9-1 2.6c-.7.7-1.5 1-2.5 1-.6 0-1.2-.1-1.8-.4-.6-.3-1-.7-1.3-1.2-.2-.7-.3-1.3-.3-2.1zm1.8.1c0 .7.2 1.2.5 1.5.3.4.7.5 1.2.5s.9-.2 1.2-.5c.3-.4.5-.9.5-1.6 0-.7-.2-1.2-.5-1.5-.3-.4-.7-.5-1.2-.5s-.9.2-1.2.5c-.3.4-.5.9-.5 1.6zm6.6-3.4h3.9c.8 0 1.4.1 1.8.4s.6.7.6 1.3c0 .4-.1.7-.3 1-.2.3-.5.5-.8.6.5.1.8.3 1 .6.2.3.3.7.3 1 0 .5-.2 1-.6 1.3s-1 .5-1.7.5H119v-6.7zm1.8 2.8h1.2c.6 0 1-.1 1.2-.2s.4-.4.4-.7c0-.3-.1-.5-.3-.6-.2-.1-.6-.2-1.2-.2H121v1.7zm0 2.8h1.4c.5 0 .9-.1 1.1-.2.2-.1.4-.3.4-.7 0-.3-.1-.6-.4-.7s-.8-.2-1.6-.2h-.9v1.8z"/></g></svg>
