<svg id="Слой_1" data-name="Слой 1" xmlns="http://www.w3.org/2000/svg" viewBox="0 0 93.2 29.8"><defs><style>.cls-1{fill:#4e8fbf}.cls-2{isolation:isolate}.cls-3{fill:#fff}</style></defs><path class="cls-1" d="M.6 16.6L10.3 28a5.18 5.18 0 004 1.8H37V0H14.2a5.53 5.53 0 00-4 1.8L.6 13.3a2.57 2.57 0 000 3.3z"/><path class="cls-1" d="M91.1 29.8c1.1.1 2-1.4 2.1-3.3V3.4c0-1.9-.9-3.4-2.1-3.4H35.8v29.8z"/><g class="cls-2"><path class="cls-3" d="M14.94 9.11h3.74a11 11 0 011.66.09 2.35 2.35 0 011 .39 2.45 2.45 0 01.72.78 2.23 2.23 0 01-1 3.13 2.52 2.52 0 011.32.85 2.29 2.29 0 01.46 1.41 2.8 2.8 0 01-.3 1.25 2.54 2.54 0 01-.81 1 2.75 2.75 0 01-1.27.45q-.48 0-2.28.06h-3.24zm1.89 1.56v2.17h1.24a12.14 12.14 0 001.37 0 1.24 1.24 0 00.77-.33 1 1 0 00.28-.73 1 1 0 00-.24-.71 1.11 1.11 0 00-.72-.33h-1.61zm0 3.73v2.5h1.75a8.24 8.24 0 001.3-.06 1.09 1.09 0 00.95-1.17 1.24 1.24 0 00-.2-.71 1.18 1.18 0 00-.59-.43 6.51 6.51 0 00-1.68-.13zm11.47 1.92l1.79.3a2.89 2.89 0 01-1.09 1.5 3.19 3.19 0 01-1.86.51 3 3 0 01-2.62-1.15 3.88 3.88 0 01-.67-2.34 3.75 3.75 0 01.88-2.65 2.92 2.92 0 012.23-1 3 3 0 012.39 1 4.42 4.42 0 01.84 3.06h-4.5a1.85 1.85 0 00.43 1.25 1.4 1.4 0 001 .44 1.12 1.12 0 00.71-.23 1.36 1.36 0 00.47-.69zm.11-1.82a1.73 1.73 0 00-.41-1.18 1.22 1.22 0 00-.93-.41 1.26 1.26 0 00-1 .43 1.66 1.66 0 00-.38 1.16zm3.19-2.81h1.68v1a2.42 2.42 0 01.88-.83 2.45 2.45 0 011.23-.32 2.59 2.59 0 012 .93 3.72 3.72 0 01.82 2.58 3.84 3.84 0 01-.83 2.64 2.57 2.57 0 01-2 .94 2.25 2.25 0 01-1-.22 3.3 3.3 0 01-1-.77v3.42H31.6zM33.38 15a2.63 2.63 0 00.45 1.69 1.39 1.39 0 001.11.55 1.31 1.31 0 001-.5 2.59 2.59 0 00.42-1.65 2.46 2.46 0 00-.36-1.61 1.32 1.32 0 00-1.09-.48 1.39 1.39 0 00-1.1.51 2.24 2.24 0 00-.43 1.49zm6.2-3.31h1.79v2.49h2.57v-2.49h1.81v6.79h-1.81v-2.85h-2.57v2.85h-1.79z"/></g><g class="cls-2"><path class="cls-3" d="M46.71 11.69h1.91l1.62 4.82 1.59-4.82h1.86l-2.4 6.53-.43 1.19a3.92 3.92 0 01-.45.9 1.84 1.84 0 01-.49.51 2.25 2.25 0 01-.68.31 3.68 3.68 0 01-.92.11 5 5 0 01-1-.11l-.16-1.41a3.64 3.64 0 00.76.08 1.14 1.14 0 00.93-.36 2.66 2.66 0 00.46-.94z"/></g><g class="cls-2"><path class="cls-3" d="M54.19 11.69h6.15v1.45h-2.18v5.34h-1.79v-5.34h-2.18zm7.26 0h1.79v2.82h1.81a6.81 6.81 0 011.63.15 1.74 1.74 0 01.94.67 1.92 1.92 0 01.38 1.18 1.72 1.72 0 01-.67 1.49 3.43 3.43 0 01-2 .49h-3.88zm1.79 5.65h1.68a1.4 1.4 0 001-.25 1 1 0 00.22-.61.7.7 0 00-.38-.68 3.57 3.57 0 00-1.36-.18h-1.16zm12.14-3.64l-1.77.3a1.28 1.28 0 00-.41-.8 1.23 1.23 0 00-.82-.27 1.35 1.35 0 00-1.07.46 2.36 2.36 0 00-.4 1.55 2.75 2.75 0 00.4 1.71 1.35 1.35 0 001.09.5 1.24 1.24 0 00.84-.29 1.73 1.73 0 00.46-1l1.76.3a3.09 3.09 0 01-1 1.83 3.23 3.23 0 01-2.09.62 3.09 3.09 0 01-2.37-.92 3.63 3.63 0 01-.89-2.6 3.64 3.64 0 01.89-2.61 3.13 3.13 0 012.4-.94 3.29 3.29 0 012 .53 3 3 0 01.98 1.63zm7.17-2.01v6.79h-1.78v-2.82h-.17a1.84 1.84 0 00-.85.15 2 2 0 00-.6.64l-.11.13-1.18 1.9h-2.09l1.28-2a2.21 2.21 0 011-1 1.72 1.72 0 01-1.23-.48 2 2 0 01-.47-1.35 2 2 0 01.31-1.12 1.58 1.58 0 01.83-.64 5.27 5.27 0 011.51-.2zm-1.78 1.16h-1.28a1.85 1.85 0 00-1 .2.76.76 0 00-.29.67.73.73 0 00.33.67 2 2 0 001.06.2h1.18z"/></g></svg>