<?xml version="1.0" encoding="utf-8"?>
<!-- Generator: Adobe Illustrator 16.0.0, SVG Export Plug-In . SVG Version: 6.00 Build 0)  -->
<!DOCTYPE svg PUBLIC "-//W3C//DTD SVG 1.1//EN" "http://www.w3.org/Graphics/SVG/1.1/DTD/svg11.dtd">
<svg version="1.1" id="Слой_1" xmlns="http://www.w3.org/2000/svg" xmlns:xlink="http://www.w3.org/1999/xlink" x="0px" y="0px"
	 width="34px" height="34px" viewBox="0 0 34 34" enable-background="new 0 0 34 34" xml:space="preserve">
<path fill-rule="evenodd" clip-rule="evenodd" fill="#F4442C" d="M17.125,33.684c-7.042,0-12.75-5.709-12.75-12.751
	c0-7.041,5.708-12.75,12.75-12.75c7.041,0,12.75,5.708,12.75,12.75C29.875,27.975,24.166,33.684,17.125,33.684z M17.125,9.777
	c-6.162,0-11.156,4.995-11.156,11.155c0,6.161,4.994,11.156,11.156,11.156c6.161,0,11.156-4.995,11.156-11.156
	C28.281,14.772,23.286,9.777,17.125,9.777z M18.256,20.937l3.377,3.378c0.311,0.311,0.311,0.814,0,1.128
	c-0.312,0.311-0.816,0.311-1.127,0l-3.376-3.379l-3.398,3.398c-0.315,0.316-0.823,0.316-1.137,0c-0.313-0.311-0.313-0.819,0-1.134
	l3.4-3.4l-3.376-3.375c-0.311-0.312-0.311-0.816,0-1.125c0.312-0.313,0.816-0.313,1.127,0l3.376,3.375l3.425-3.424
	c0.312-0.314,0.822-0.314,1.135,0c0.313,0.313,0.313,0.821,0,1.136L18.256,20.937z"/>
<g>
	<path fill="#F4442C" d="M4.084,6.052V0.101H5.27l1.408,4.214c0.129,0.393,0.225,0.686,0.284,0.881
		c0.067-0.217,0.173-0.535,0.317-0.954l1.424-4.141h1.06v5.951H9.003v-4.98l-1.729,4.98h-0.71L4.842,0.986v5.066H4.084z"/>
	<path fill="#F4442C" d="M11.049,6.052V0.101h4.303v0.703h-3.516v1.822h3.292v0.699h-3.292V5.35h3.654v0.702H11.049z"/>
	<path fill="#F4442C" d="M16.603,6.052V0.101h0.787v2.444h3.095V0.101h0.785v5.951h-0.785V3.248H17.39v2.804H16.603z"/>
	<path fill="#F4442C" d="M22.604,0.101h0.788v2.671h1.146c0.056-0.844,0.333-1.517,0.832-2.019C25.867,0.25,26.483,0,27.221,0
		c0.777,0,1.419,0.273,1.931,0.819c0.509,0.547,0.765,1.289,0.765,2.225c0,0.974-0.255,1.736-0.764,2.285
		c-0.509,0.549-1.158,0.824-1.952,0.824c-0.721,0-1.319-0.237-1.801-0.712c-0.479-0.475-0.762-1.131-0.846-1.972h-1.161v2.582
		h-0.788V0.101z M25.33,3.105c0,0.753,0.172,1.336,0.519,1.752c0.347,0.416,0.801,0.623,1.363,0.623
		c0.576,0,1.036-0.209,1.381-0.625c0.344-0.417,0.515-1.017,0.515-1.798c0-0.742-0.169-1.326-0.507-1.751
		c-0.339-0.426-0.796-0.64-1.372-0.64c-0.587,0-1.051,0.216-1.39,0.648C25.499,1.745,25.33,2.342,25.33,3.105z"/>
</g>
</svg>
