<svg id="Слой_1" data-name="Слой 1" xmlns="http://www.w3.org/2000/svg" viewBox="0 0 9.16 9.29"><defs><style>.cls-1{fill:#8a8a8a;}</style></defs><title>лупа+</title><path class="cls-1" d="M9.51,8.52,7.73,6.72a4.09,4.09,0,0,0,.8-2.43,4,4,0,0,0-4-4.07,4,4,0,0,0-4,4.07,4,4,0,0,0,4,4.06,3.94,3.94,0,0,0,2.4-.81L8.7,9.34a.56.56,0,0,0,.81,0A.59.59,0,0,0,9.51,8.52Zm-5-1.33a2.91,2.91,0,1,1,2.86-2.9A2.89,2.89,0,0,1,4.52,7.19Z" transform="translate(-0.51 -0.22)"/><path class="cls-1" d="M4.87,1.54v2.4H7.13v.61H4.87V7H4.23V4.55H2V3.94H4.23V1.54Z" transform="translate(-0.51 -0.22)"/></svg>