<svg id="Слой_1" data-name="Слой 1" xmlns="http://www.w3.org/2000/svg" viewBox="0 0 93.2 29.8"><defs><style>.cls-1{fill:#4e8fbf;}.cls-2{isolation:isolate;}.cls-3{fill:#fff;}</style></defs><title>вернуться2</title><path class="cls-1" d="M.6,16.6,10.3,28a5.18,5.18,0,0,0,4,1.8H37V0H14.2a5.53,5.53,0,0,0-4,1.8L.6,13.3A2.57,2.57,0,0,0,.6,16.6Z" transform="translate(0)"/><path class="cls-1" d="M91.1,29.8c1.1.1,2-1.4,2.1-3.3h0V3.4c0-1.9-.9-3.4-2.1-3.4H35.8V29.8Z" transform="translate(0)"/><g class="cls-2"><path class="cls-3" d="M14.94,9.11h3.74a11,11,0,0,1,1.66.09,2.35,2.35,0,0,1,1,.39,2.45,2.45,0,0,1,.72.78,2.23,2.23,0,0,1-1,3.13,2.52,2.52,0,0,1,1.32.85,2.29,2.29,0,0,1,.46,1.41,2.8,2.8,0,0,1-.3,1.25,2.54,2.54,0,0,1-.81,1,2.75,2.75,0,0,1-1.27.45q-.48,0-2.28.06H14.94Zm1.89,1.56v2.17h1.24a12.14,12.14,0,0,0,1.37,0,1.24,1.24,0,0,0,.77-.33,1,1,0,0,0,.28-.73,1,1,0,0,0-.24-.71,1.11,1.11,0,0,0-.72-.33c-.18,0-.72,0-1.61,0Zm0,3.73v2.5h1.75a8.24,8.24,0,0,0,1.3-.06,1.09,1.09,0,0,0,.95-1.17,1.24,1.24,0,0,0-.2-.71,1.18,1.18,0,0,0-.59-.43,6.51,6.51,0,0,0-1.68-.13Z" transform="translate(0)"/><path class="cls-3" d="M28.3,16.32l1.79.3A2.89,2.89,0,0,1,29,18.12a3.19,3.19,0,0,1-1.86.51,3,3,0,0,1-2.62-1.15,3.88,3.88,0,0,1-.67-2.34,3.75,3.75,0,0,1,.88-2.65,2.92,2.92,0,0,1,2.23-1,3,3,0,0,1,2.39,1,4.42,4.42,0,0,1,.84,3.06h-4.5a1.85,1.85,0,0,0,.43,1.25,1.4,1.4,0,0,0,1,.44,1.12,1.12,0,0,0,.71-.23A1.36,1.36,0,0,0,28.3,16.32Zm.11-1.82A1.73,1.73,0,0,0,28,13.32a1.22,1.22,0,0,0-.93-.41,1.26,1.26,0,0,0-1,.43,1.66,1.66,0,0,0-.38,1.16Z" transform="translate(0)"/><path class="cls-3" d="M31.6,11.69h1.68v1a2.42,2.42,0,0,1,.88-.83,2.45,2.45,0,0,1,1.23-.32,2.59,2.59,0,0,1,2,.93,3.72,3.72,0,0,1,.82,2.58,3.84,3.84,0,0,1-.83,2.64,2.57,2.57,0,0,1-2,.94,2.25,2.25,0,0,1-1-.22,3.3,3.3,0,0,1-1-.77v3.42H31.6ZM33.38,15a2.63,2.63,0,0,0,.45,1.69,1.39,1.39,0,0,0,1.11.55,1.31,1.31,0,0,0,1-.5,2.59,2.59,0,0,0,.42-1.65A2.46,2.46,0,0,0,36,13.48,1.32,1.32,0,0,0,34.91,13a1.39,1.39,0,0,0-1.1.51A2.24,2.24,0,0,0,33.38,15Z" transform="translate(0)"/><path class="cls-3" d="M39.58,11.69h1.79v2.49h2.57V11.69h1.81v6.79H43.94V15.63H41.37v2.85H39.58Z" transform="translate(0)"/></g><g class="cls-2"><path class="cls-3" d="M46.71,11.69h1.91l1.62,4.82,1.59-4.82h1.86l-2.4,6.53-.43,1.19a3.92,3.92,0,0,1-.45.9,1.84,1.84,0,0,1-.49.51,2.25,2.25,0,0,1-.68.31,3.68,3.68,0,0,1-.92.11,5,5,0,0,1-1-.11l-.16-1.41a3.64,3.64,0,0,0,.76.08,1.14,1.14,0,0,0,.93-.36,2.66,2.66,0,0,0,.46-.94Z" transform="translate(0)"/></g><g class="cls-2"><path class="cls-3" d="M54.19,11.69h6.15v1.45H58.16v5.34H56.37V13.14H54.19Z" transform="translate(0)"/><path class="cls-3" d="M61.45,11.69h1.79v2.82h1.81a6.81,6.81,0,0,1,1.63.15,1.74,1.74,0,0,1,.94.67A1.92,1.92,0,0,1,68,16.51,1.72,1.72,0,0,1,67.33,18a3.43,3.43,0,0,1-2,.49H61.45Zm1.79,5.65h1.68a1.4,1.4,0,0,0,1-.25,1,1,0,0,0,.22-.61.7.7,0,0,0-.38-.68,3.57,3.57,0,0,0-1.36-.18H63.24Z" transform="translate(0)"/><path class="cls-3" d="M75.38,13.7,73.61,14a1.28,1.28,0,0,0-.41-.8,1.23,1.23,0,0,0-.82-.27,1.35,1.35,0,0,0-1.07.46,2.36,2.36,0,0,0-.4,1.55,2.75,2.75,0,0,0,.4,1.71,1.35,1.35,0,0,0,1.09.5,1.24,1.24,0,0,0,.84-.29,1.73,1.73,0,0,0,.46-1l1.76.3a3.09,3.09,0,0,1-1,1.83,3.23,3.23,0,0,1-2.09.62A3.09,3.09,0,0,1,70,17.69a3.63,3.63,0,0,1-.89-2.6A3.64,3.64,0,0,1,70,12.48a3.13,3.13,0,0,1,2.4-.94,3.29,3.29,0,0,1,2,.53A3,3,0,0,1,75.38,13.7Z" transform="translate(0)"/><path class="cls-3" d="M82.55,11.69v6.79H80.77V15.66H80.6a1.84,1.84,0,0,0-.85.15,2,2,0,0,0-.6.64l-.11.13-1.18,1.9H75.77l1.28-2a2.21,2.21,0,0,1,1-1A1.72,1.72,0,0,1,76.82,15a2,2,0,0,1-.47-1.35,2,2,0,0,1,.31-1.12,1.58,1.58,0,0,1,.83-.64A5.27,5.27,0,0,1,79,11.69Zm-1.78,1.16H79.49a1.85,1.85,0,0,0-1,.2.76.76,0,0,0-.29.67.73.73,0,0,0,.33.67,2,2,0,0,0,1.06.2h1.18Z" transform="translate(0)"/></g></svg>