<svg version="1.1" id="Слой_1" xmlns="http://www.w3.org/2000/svg" x="0" y="0" viewBox="0 0 17.7 21.6" xml:space="preserve"><style>.st2{fill:#fff}</style><path class="st2" d="M11.9 20.6c0 .4.3.7.7.7h4.3c.4 0 .7-.3.7-.7V.9c0-.4-.3-.7-.7-.7h-4.3c-.4 0-.7.3-.7.7s.3.7.7.7h3.6v18.2h-3.6c-.4.1-.7.4-.7.8z"/><path class="st2" d="M.4 10.8c0 .4.2.7.5.7h10.7l-3 4.4c-.2.3-.2.7 0 1 .2.3.5.3.7 0l3.9-5.6.1-.1c0-.1.1-.1.1-.1s.1-.1.1-.3c0-.1 0-.2-.1-.3 0-.1-.1-.1-.1-.1s0-.1-.1-.1L9.3 4.7c-.2-.3-.5-.3-.7 0-.2.3-.2.7 0 1l3 4.4H.9c-.3 0-.5.3-.5.7z"/></svg>